<?xml version="1.0" encoding="UTF-8"?>
<svg viewBox="0 0 491 416" xmlns="http://www.w3.org/2000/svg">
<path d="m249.9 387.35c5.595-0.033 12.119 0.068 17.512 1.678 5.998 1.785 3.662 3.82 4.059 9.33-0.168 0.714-1.777 0.97-2.437 1.051-3.514 0.438-9.001 0.633-12.711 0.775-13.263 0.512-26.506-0.735-39.755-0.708l-1.589-1.104-0.094-4.959c-9.385 1.092-18.737 4.986-28.304 3.733-1.003-0.674-2.888-9.25-3.15-10.995-0.539-3.59 1.191-9.923-2.936-10.664l-17.114-46.072-2.349-0.674 9.338 71.692c-0.384 1.637-4.538 1.064-5.905 0.99l-13.586-71.954-3.683-0.559c-0.895 0.161-1.797 5.685-2.114 7.114-3.972 17.778-6.416 35.933-10.179 53.758l-2.134 1.947c5.11 4.554 12.94 5.457 17.854 10.415 3.858 3.894 6.43 13.076-1.339 12.854-6.874-0.202-15.903-1.26-22.844-2.129-2.928-0.364-14.818-1.839-16.42-3.442-2.969-2.978 1.683-15.299 1.804-19.106 0.088-2.762-1.165-7.168-1.286-10.051-0.72-17.138-0.754-34.323-0.673-51.535l-60.269 0.666-1.3465 0.674-14.535 71.348-5.3523-0.242 10.132-72.44c-1.4071-0.027-2.7402-0.424-3.9789-1.084-13.081-7.007-10.254-33.765-12.22-46.382-0.3097-1.981-2.3564-4.022-3.1441-6.286-3.3191-9.525-5.9919-44.361-5.6014-55.092 0.5521-15.252 7.8636-21.618 22.83-22.622-0.0674-2.729 3.9991-9.445 3.144-11.338-0.4107-0.916-2.5381-2.237-3.346-3.442-2.8748-4.305-5.3321-11.197-5.1032-16.431 0.3703-8.509 7.1364-14.733 9.1023-22.595 1.8851-7.532-0.1414-13.143 0.3029-20.581 2.04-34.006 31.784-58.744 65.628-48.773 14.172 4.1767 20.117 13.271 22.514 27.324 1.003 5.881 1.44 7.572 2.962 13.204 2.397 8.879-1.225 14.005-0.014 22.244 0.721 4.884 4.599 10.55 6.073 15.481 2.976 9.964 2.498 19.213-4.767 27.129 1.367 2.378 9.998 13.163 9.958 14.834-0.02 0.842-1.03 1.482-1.091 2.028-0.229 2.169 9.089 13.298 9.857 16.491l34.672-34.35c4.699-8.01 7.432-14.208 17.511-16.162l4.107-21.611 43.539 2.877c3.292 0.97 1.474 11.169 1.057 14.248-1.468 10.711-5.487 20.924-6.632 31.763-0.619 5.915-0.545 12.551-0.686 18.519-0.721 0.701-7.325-2.378-8.908-2.876-9.243-2.904-18.992-4.918-28.565-6.447-2.108-0.337-9.89-0.532-10.268-1.88 0.088-2.007 0.957-4.203 1.132-6.15 0.087-0.991 0.72-1.759-0.835-1.509l-19.868 30.975c7.547 0.714 8.214-3.928 13.142-7.39l66.342-5.026 18.157-62.664c1.65-1.476 3.454-1.031 5.346-0.324l-19.497 71.369c14.091 0.175 28.747 1.246 42.542 4.257 12.401 2.708 23.268 5.039 17.599 20.554-1.919 5.241-9.897 6.305-14.892 7.329-18.38 3.759-38.005 3.706-56.688 4.918v134.06l-7e-3 0.02zm-166.96-312.58c-22.083 2.7957-38.517 23.04-40.382 44.806-0.6059 7.06 0.7608 15.07-0.1817 22.049-1.0907 8.057-8.3954 14.591-9.2572 22.399-0.8617 7.808 1.6495 15.724 7.7491 20.54 7.1028-12.671 21.881-19.031 36.026-19.522 0.6463-7.788-1.4206-14.659-4.7464-21.551-18.104 7.134-29.724-14.154-19.383-28.523 1.5215-2.116 4.3492-3.005 4.4973-3.241 0.3164-0.518 1.1378-9.626 1.7908-12.018 2.6728-9.7278 8.9475-17.199 17.612-22.123l6.2747-2.8024v-0.0135zm39.048 27.614c-0.983-38.831-54.661-23.06-54.566 7.733l6.4295 5.733 3.8173-9.983c11.102-0.971 19.975-2.594 25.752-12.962 1.407-2.5263 1.919-5.0121 3.434-7.3498 2.053-0.2088 0.181 2.6206 0.437 4.197 0.741 4.5338 10.294 11.318 14.697 12.632zm5.386 4.042c-0.599-8.4077-2.208-18.277-9.412-23.572 2.882 6.3123 5.292 11.452 6.046 18.533 0.276 2.573-1.703 3.738 3.366 5.045v-6e-3zm-37.022 47.163c14.186 3.49 28.519-0.876 32.942-15.871 3.252-11.022 0.593-21.895-1.434-32.842-5.527-3.846-12.879-6.339-15.37-13.258l-5.783 8.0032c-5.8034 5.5844-13.916 7.2014-21.746 7.5454l-3.3191 10.879c5.0224 8.381 3.9317 17.462-2.0265 24.967 1.7706 3.55 3.8981 7.78 4.4367 11.755 0.9829 7.249-2.316 12.827 5.3321 17.569 6.0794 3.773 19.955 3.665 20.366-5.699 0.175-3.907-2.518-2.951-4.8743-4.419-1.5484-0.963-10.078-6.885-8.53-8.637l0.0067 7e-3zm35.683-19.543c4.847-3.072 5.231-10.597 4.699-15.824-0.438-4.305-2.969-10.334-7.399-11.79 2.827 8.852 4.221 18.351 2.7 27.614zm-54.534 7.41c12.267-9.761 2.8613-33.508-13.465-28.961l6.0794 0.984c8.1329 3.355 10.988 11.937 10.079 20.237-0.3165 2.917-1.7707 5.106-2.693 7.74zm-11.593-26.805c-14.858 1.098-10.368 29.332 4.2752 28.463 13.593-0.809 10.159-29.527-4.2752-28.463zm72.839 63.184c10.906-15.043 0.68-28.867-3.69-43.782-4.463 2.593-4.712 6.905-7.203 10.981-4.067 6.649-9.675 9.465-17.074 11.209l0.444 8.051c6.423-0.202 13.593 1.947 18.723 5.854 1.448 1.105 7.756 8.414 8.8 7.687zm118.41-32.242-42.321-3.47-4.039 24.926 2.646-0.04 2.74-20.844h2.013l-3.36 20.884c2.101 0.202 1.899-3.557 4.08-1.596l-0.04 2.943 4.033-1.34-2.013 4.709 8.072-2.021v4.715l2.356-4.729 1.697 0.404v2.978c1.784-0.525 1.003-3.692 3.353-3.362l0.013 3.362 2-2.021c0.074 4.049 4.295-0.411 4.719 2.351-0.417 0.795-5.049 2.035-6.046 2.122-1.467 0.128-1.932-0.869-2.363-0.855-0.532 0.013-1.279 1.253-2.006 1.111-0.862-0.161-0.593-2.23-1.69-2.027-1.838 7.309-4.046 3.536-3.38-2.021l-7.392 1.69c-1.771 1.435-1.569 4.635-2.659 6.097-0.923 1.24-3.003 1.145-3.959 2.776-0.572 0.983-1.246 4.668-0.707 5.51 9.823 2.23 20.036 3.328 29.677 6.339 1.245 0.391 4.383 0.654 3.891 2.507l-35.662-7.438 1.333-6.689c-2.013-0.142-2.827-1.058-3.703-2.722l-2.74 16.222c8.275 1.199 16.495 2.405 24.634 4.325 6.645 1.57 13.028 3.705 19.511 5.733-2.302-20.958 8.348-39.955 7.318-60.529h-6e-3zm27.697 0.586-2.356 0.667c-7.48 24.67-13.91 49.75-21.16 74.521l0.962 2.937 22.554-78.125zm-153.5 44.462c2.935-2.297 5.588 10.065 7.069 10.085l8.334-6.939c-8.536-13.184-17.854-28.112-35.601-28.085 0.687 12.55-16.03 12.725-23.786 7.302-2.6863-1.879-3.5009-4.304-5.6014-6.548-25.496 1.806-39.688 20.224-39.957 45.062l25.873 3.287c1.7101-0.41 1.2994-10.893 3.4201-12.705 1.4812-0.061 0.3366 4.116 0.2155 4.918-1.636 10.765-2.6257 13.547-1.9053 25.054 0.2289 3.658-0.5588 7.457 0.8348 10.953l66.496 11.601c-1.373-9.607-4.988-21.692-4.066-31.353 0.37-3.893 3.669-6.851 4.443-11.054 1.448-7.876-2.248-14.882-5.756-21.585l-0.013 7e-3zm74.737-16.848c0.922 1.697-2.693 6.655-3.71 6.729-2.498 0.169 1.125-3.045 1.3-3.402 0.639-1.293 0.74-4.392 1.703-5.025 1.495-0.984 9.378 0.909 12.482 0.357 0.956-0.168 2.276-0.782 1.367-2.035-0.66-0.909-13.883-3.213-15.653-3.146-4.619 0.196-7.453 9.385-9.938 12.611-5.311 6.899-16.339 13.811-21.914 21.187l-15.128 16.539-1.676-1.017 1.925-2.58c-3.372-5.477-7.971-10.442-10.024-16.627-2.848 1.496-8.241 3.598-8.099 7.033 0.054 1.307 0.74 2.54 0.727 4.049-0.054 5.107-3.272 9.351-4.632 14.033 6.389 8.966 14.131 24.259 27.482 19.664 8.415-2.897 5.312-3.813 5.467-10.017 0.235-9.405 9.526-7.687 13.767-11.83l21.181-32.026-2.673-0.667c1.569-2.311 3.07-1.677 5.366-1.011 0.478-3.179 0.902-6.453 1.515-9.606 0.336-1.745 3.009-3.597-0.828-3.2l-7e-3 -0.013zm11.438 0.68c-1.333 0.209-8.637-0.963-8.072 1.664 0.411 1.927 4.746 0.202 5.837-0.216 0.714-0.276 2.33-0.552 2.235-1.455v7e-3zm-7.399 4.042c-0.175 4.588 8.059-0.027 6.726-1.347l-6.726 1.347zm-167.66 34.377c-5.7563-0.188-0.0606-10.28-0.983-14.16-7.8231 1.421-16.104 3.678-18.858 12.119-3.1172 9.559 0.5722 44.213 2.4439 55.483 0.4982 3.018 1.535 10.584 3.9856 12.18 3.8914 2.533 14.3 0.337 18.851-0.687 1.0368-3.53-1.3128-4.352-1.4407-5.295-0.6531-4.999 1.2455-12.025 0.7002-16.154-0.2626-2.015-2.1477-5.013-2.7671-7.37-1.8245-6.919-2.4371-17.078-2.6257-24.32-0.1009-3.961-0.1144-7.936 0.6935-11.796zm220.16-3.388c-22.082 2.324-44.535 2.048-66.443 5.598l-10.3 13.258 72.926-6.852 1.01-1.01 2.814-10.988-7e-3 -6e-3zm-195.92 6.736-22.884-2.701c0.2088 10.812-0.6597 22.413 1.663 33.037 2.9219 13.372 11.816 16.68 24.264 18.162 19.558 2.331 40.597 1.475 59.852 4.109 3.602 0.492 7.049 3.833 10.146 4.008 2.773 0.155-0.902-3.098-1.717-3.685-2.673-1.933-6.059-2.277-8.705-4.089 2.76-1.051 5.884 0.472 8.281 1.819 2.006 1.125 4.019 3.665 5.17 4.265 1.044 0.538 2.034-0.256 2.02-0.688-0.061-1.61-10.604-9.283-13.458-7.747-0.593-3.092 1.42-2.095 3.743-1.374 4.026 1.246 7.298 4.082 10.395 6.77-1.4-5.712-8.355-8.09-13.458-9.438-0.451-2.129 1.393-1.347 2.72-1.03 3.629 0.848 6.577 2.735 9.385 5.086-1.542-4.608-8.914-7.323-13.297-7.909-3.056-0.411-6.14 0.128-9.169-0.256-9.507-1.206-20.319-4.52-30.027-6.333-7.6212-1.428-15.431-1.893-22.917-4.015l-2.0197-27.957 0.0134-0.034zm104.57 10.981c-4.76 5.228 0.04 9.263 4.995 11.095 19.013 7.034 62.862 5.457 84.008 4.878 17.579-0.485 36.423-0.553 53.651-4.251 5.339-1.145 19.154-3.84 10.961-11.244-4.948-4.473-22.096-7.1-29.037-7.996-3.851-0.498-27.597-2.883-29.219-1.805-1.697 2.169-1.293 8.569-4.349 9.121l-77.451 6.103-1.057-0.437c-2.282-4.588 3.03-7.276 4.787-11.055-1.488-1.105-15.505 3.617-17.296 5.591h7e-3zm13.936 4.507 75.384-7.067c-0.068-1.388-5.245-1.084-6.41-1.037-21.039 0.869-45.478 3.725-66.57 6.157-1.205 0.142-2.902 0.357-2.404 1.954v-7e-3zm55.873 154.61v-133.05c-17.989-0.303-36.955-0.384-54.674-3.563-5.595-1.004-15.869-2.237-17.37-8.563-8.497 4.433-16.178 5.289-23.584-1.657-3.932-3.692-7.466-11.088-10.745-14.181-0.828-0.781-0.721-0.08-0.7 0.694 0.316 9.6 3.056 19.779 4.389 29.298 1.663 1.314 4.322 2.088 5.736 3.692 1.313 1.482 1.697 4.392 3.387 5.369 2.955 1.704 13.788 3.557 18.312 5.255 18.885 7.066 25.031 14.12 30.613 33.366 6.301 21.753 7.897 45.062 13.007 67.118l-1.98 1.462 0.229 2.344c9.991 2.776 27.705-1.253 28.687 13.393 1.253 0.134 4.276 0.337 4.686-0.977h7e-3zm85.502-149.21c-18.305 6.151-37.722 6.669-56.876 7.41-20.897 0.816-43.074 1.381-63.958-0.013-11.311-0.755-25.22-1.839-35.022-7.397-2.108 8.125 7.991 9.438 13.68 10.563 32.895 6.488 93.171 5.666 126.15-0.673 6.107-1.173 16.226-1.907 16.03-9.89zm-72.71 16.161h-11.446v136.42c2.256 1.725 8.322 1.752 11.008 0.91 0.815-0.256 1.071-0.782 1.111-1.583l-0.673-135.74zm-142.06 15.502c-3.682-0.149-7.4188 0.188-11.095-0.014-10.59-0.579-23.914-1.266-34.262-2.769-6.7998-0.983-12.886-3.193-17.915-8.003l-0.7203 13.729c0.1481 0.56 2.5179 0.937 3.144 1.004 16.212 1.711 35.346-1.92 51.759-1.947l9.0955-2.007-7e-3 7e-3zm11.452 2.681c16.811 5.584 34.201 15.615 33.07 35.96 1.966 1.792 4.282 1.711 6.336 3.766 1.844 1.846 2.975 4.931 4.254 7.195l20.945 55.2 19.275-4.406c-4.733-23.181-6.16-49.858-14.232-72.082-7.938-21.854-24.513-25.384-45.027-31.036-0.976 0.101-1.4 5.396-2.397 6.427-0.229 0.235-4.773 2.162-5.224 2.23-2.437 0.357-7.339-3.47-9.978-3.888-1.393-0.222-3.225-0.094-4.679-0.04-0.814 0.034-2.504-0.512-2.343 0.66v0.014zm-55.213 2.701h-9.4255c-0.3501 12.827 9.7621 17.677 20.359 21.059 9.991 3.193 34.733 6.676 41.203 14.012 4.847 5.497 3.844 22.534 3.77 29.965-0.014 1.59-0.714 3.072-0.727 4.662-0.108 14.713 0.134 29.439 0.033 44.145l16.185 0.923 14.69-77.465c1.838-20.877-7.701-28.085-25.044-36.068-2.835-1.307-7.09-2.122-9.439-3.382-0.896-0.478-0.983-1.751-1.596-1.913-1.838-0.485-15.296 2.385-18.709 2.715-9.6813 0.923-19.544 0.822-29.253 1.381 0.3165 2.91-3.548 9.566-6.416 10.085-3.1104 0.565 1.0839-2.54 1.2724-2.769 1.6091-2.008 3.3191-4.709 3.097-7.343v-7e-3zm-18.178 0v9.768c0 3.732 4.9282 12.463 7.7087 15.192 13.674 13.406 47.552 8.724 56.243 17.825 6.315 6.608 2.162 29.917 3.346 39.093l2.007 31.002 2.053 0.296c0.162-3.462-0.202-6.999-0.027-10.468 0.882-17.502 2.208-40.67 0.727-57.929-0.74-8.616-5.042-10.967-12.468-13.797-18.292-6.972-51.369-5.8-52.864-30.975h-6.7257v-7e-3zm61.258 42.448c-23.698-8.3-61.561-2.277-63.285-37.059l-11.681 1.442-1.1175 1.603c1.4003 8.623 0.6261 19.22 3.5682 27.425 0.9493 2.641 2.7603 6.346 5.8707 6.596 0.4578 1.731-0.956 1.677-2.215 1.206-7.7693-2.924-8.1328-28.564-8.6445-35.813-0.5117-1.556-2.6324-1.084-3.9452-1.104 2.6256 15.002-2.1746 45.6 19.161 47.19 8.2944 0.62 16.744-0.653 24.91-0.728 13.808-0.128 27.637 0.149 41.438 0.034 0.303-1.556-0.411-7.538-1.838-8.091l-66.16-2.021 0.9964-1.347 62.956 0.68-0.014-0.013zm57.233 10.772c-0.956-5.221-5.998-17.967-12.448-17.522l-3.036 17.522h15.484zm-3.373 1.354c-1.326 0.155-6.274-0.68-6.571 0.977l12.839 67.192c0.276 3.664 3.427 4.702 2.996 0.417l-9.264-68.579v-7e-3zm-113.09 0.667h-6.0593l-10.099 70.061 2.6189-0.074c0.2424-1.569 0.7137-3.092 1.0907-4.635 4.3896-18.007 9.9843-43.02 12.26-61.155 0.1751-1.408 0.2895-2.789 0.1886-4.197zm154.17 42.441-16.165 3.375c0.728 4.736 0.997 5.012 5.716 4.696 4.693-0.317 11.816-1.981 10.449-8.078v7e-3zm6.059 4.049c-3.804-1.004-4.477 1.482-6.934 2.822-4.908 2.682-9.082 2.877-14.61 2.567l1.677 10.799 0.734 0.573 25.873-4.642c-1.69-4.096 0.06-7.02 1.339-10.772-3.42-1.051-3.608 3.106-4.645 5.814-0.37 0.97 0.639 1.96-1.407 1.59l2.026-7.734c-2.915-1.516-3.703 3.503-4.551 5.585-0.411 1.01 0.404 1.825-1.515 1.482l2.013-8.077v-7e-3zm21.551 8.077c-0.182-4.695-6.665-5.78-10.469-6.46-3.541 1.987-3.063 6.42-2.996 9.828l13.465-3.368zm0.667 1.354-41.055 9.755c0.788 1.138 1.757 1.078 2.989 1.044 5.777-0.162 14.731-2.385 20.581-3.719 3.299-0.754 14.085-3.146 16.353-4.52 1.293-0.781 1.3-1.051 1.138-2.56h-6e-3zm6.705 3.389c-6.153-0.822-11.445 3.031-17.471 3.348 0.128 1.098 2.841 1.239 3.703 1.334 2.336 0.269 5.716 0.593 8.045 0.707 12.886 0.627 27.543 0.566 40.086-2.055-0.202-1.199-1.36-1.158-2.256-1.441-5.063-1.597-11.566-1.617-16.892-1.954-0.78 0.142-0.121 1.947-0.68 2.755-1.07 1.563-16.346 3.234-14.542-2.688l7e-3 -6e-3zm-103.65 2-17.397-1.253c-1.804 2.944 0.646 3.598 3.232 4.305 3.783 1.038 14.064 2.789 14.165-3.052zm-4.033 5.376c-5.123 0.384-9.977-0.377-14.805-2.021l-1.313 10.745 26.197 3.389c0.013-4.251 2.989-6.481 5.406-9.404-4.127-0.344-4.578 4.789-8.072 5.375-0.465-1.839 4.672-5.982 4.692-6.393 0.222-4.001-5.682 3.874-6.039 4.056-3.521 1.765-7.258-1.981-6.059-5.747h-7e-3zm8.746-0.66c-3.434-1.65-6.592-1.334-7.339 2.89 1.804 5.066 8.2-1.96 7.339-2.89zm133.98-1.354c-17.693 2.587-35.864 2.85-53.517-7e-3 -0.767-0.04-0.707 4.413 1.333 4.056 17.411 0.195 34.801 1.415 52.143-0.708l0.034-3.334 7e-3 -7e-3zm-117.82 15.494c1.031-2.97-4.827-9.114-7.176-9.31-2.229-0.188-6.437 5.524-5.582 7.936l12.758 1.374zm0 1.355-41.061-4.716c-0.135 1.455-0.215 1.839 1.151 2.546 1.549 0.809 8.49 1.765 10.712 2.082 4.726 0.674 24.795 3.031 28.074 1.994 0.889-0.283 1.306-0.977 1.124-1.9v-6e-3z"/>
<path d="m144.88 112.49 3.945-12.335c-7.844-6.0228-11.802-12.732-10.611-22.959 3.744-32.12 69.762-27.082 60.882 9.7143-3.588 14.874-19.948 19.738-33.676 18.83-2.43-0.162-5.648-1.745-7.91-1.206-2.06 0.491-11.203 9.283-12.63 7.949v7e-3zm2.686-3.375c0.585 0.579 8.584-6.03 10.078-6.447 0.983-0.277 8.8 1.731 11.109 1.771 16.535 0.297 32.336-10.091 29.003-28.361-4.221-23.127-47.935-24.542-56.377-4.4731-4.875 11.587-0.182 21.146 9.432 27.829l-3.245 9.681z"/>
<path d="m7.5302 196.03c-0.46454 3.113-2.8411 5.592-3.8846 8.569-1.4273 4.063-1.6158 7.04-1.5215 11.331 0.01346 0.472 1.71 8.859-0.63959 6.373-1.6966-7.868-1.4677-16.067 2.8209-23.106 0.71364-1.173 1.5485-3.308 3.2249-3.167z"/>
<path d="m125.35 190.64c3.5 6.703 7.203 13.709 5.756 21.584-0.774 4.197-4.073 7.155-4.444 11.055-0.922 9.661 2.693 21.746 4.067 31.353l-66.497-11.601c-1.3936-3.496-0.6059-7.296-0.8348-10.954-0.7136-11.506 0.2693-14.288 1.9053-25.053 0.1212-0.802 1.2657-4.979-0.2154-4.918-2.1208 1.812-1.7034 12.294-3.4201 12.705l-25.873-3.287c0.2693-24.838 14.461-43.257 39.957-45.062 2.1005 2.243 2.9152 4.669 5.6014 6.548 7.7558 5.423 24.472 5.248 23.786-7.302 17.746-0.027 27.064 14.901 35.601 28.085l-8.335 6.939c-1.474-0.021-4.134-12.382-7.069-10.085l0.014-7e-3zm-50.157 33.003c2.0601 0.485 7.5269 0 10.099 0 0.8281 0 8.7994-3.072 6.7258-5.396-4.7397 3.921-8.9071 4.116-14.825 4.062-0.8753-7e-3 -1.8313-0.674-2.0063-0.667-0.9022 0.041-1.1513 1.725 0.0134 2.001h-0.0067z" fill="#fff"/>
<path d="m62.063 274.17c0.2221 2.634-1.4879 5.336-3.097 7.343-0.1885 0.236-4.3895 3.335-1.2724 2.769 2.868-0.519 6.7325-7.175 6.416-10.085 9.7083-0.559 19.571-0.458 29.253-1.381 3.4133-0.323 16.871-3.193 18.709-2.715 0.613 0.162 0.7 1.428 1.596 1.913 2.349 1.26 6.604 2.075 9.439 3.382 17.336 7.983 26.882 15.191 25.044 36.068l-14.69 77.466-16.185-0.923c0.101-14.707-0.141-29.433-0.033-44.146 0.013-1.59 0.713-3.065 0.727-4.662 0.074-7.43 1.077-24.467-3.77-29.964-6.47-7.33-31.212-10.82-41.203-14.013-10.597-3.382-20.702-8.239-20.359-21.059h9.4255v7e-3z" fill="#FFD8CE"/>
<path d="m117.28 271.47c-0.161-1.172 1.529-0.634 2.343-0.66 1.461-0.054 3.286-0.182 4.679 0.04 2.639 0.411 7.541 4.244 9.978 3.887 0.451-0.067 5.002-2.001 5.224-2.23 0.997-1.031 1.421-6.326 2.397-6.427 20.514 5.652 37.096 9.183 45.027 31.036 8.072 22.225 9.499 48.902 14.232 72.083l-19.275 4.406-20.945-55.201c-1.279-2.263-2.41-5.349-4.254-7.195-2.054-2.054-4.37-1.98-6.336-3.765 1.131-20.352-16.259-30.376-33.07-35.961v-0.013z" fill="#FFD8CE"/>
<path d="m90.346 153.59c-1.5484 1.752 6.9816 7.673 8.5301 8.637 2.3495 1.468 5.0495 0.512 4.8745 4.419-0.418 9.364-14.286 9.472-20.366 5.699-7.6481-4.742-4.3491-10.32-5.3321-17.569-0.5386-3.975-2.6593-8.199-4.4367-11.756 5.9515-7.504 7.0422-16.585 2.0265-24.966l3.3191-10.88c7.8299-0.343 15.942-1.96 21.746-7.5446l5.783-8.0032c2.491 6.9186 9.843 9.4108 15.37 13.258 2.027 10.947 4.686 21.82 1.434 32.841-4.423 14.996-18.763 19.368-32.942 15.872l-0.0068-7e-3zm22.218-44.469c0.511 0.546 2.134-1.206 3.07-1.36 1.945-0.317 3.655 1.475 4.995-0.324-1.286-2.789-10.449-0.876-8.059 1.684h-6e-3zm-16.165 2.021c-0.1952-4.857-11.728-0.471-9.4187 2.021 2.0736-0.33 2.8613-2.29 5.2244-2.573 1.5889-0.189 2.6862 0.573 4.1876 0.552h0.0067zm12.785 4.042h-2.013c0.518 5.12 2.7 8.947 5.393 13.15-0.923 2.823-3.118 3.699-5.723 2.345l-0.693 1.347c2.228 1.671 7.271 0.559 7.755-2.391 0.667-4.036-5.682-9.499-4.726-14.457l7e-3 6e-3zm6.806 5.322h2.209c2.753-1.003 0.7-8.394-2.868-4.203l0.666 4.203h-7e-3zm-22.594-2.62c-2.1678 1.3-0.9358 6.373 1.2388 6.016 2.6122-0.432 2.4708-6.569-1.2388-6.016zm21.181 20.884c-2.121 0.41-3.017 2.303-5.117 3.287-3.286 1.543-5.83 1.469-9.062-0.222-0.4847-0.25-5.9044-4.965-4.6656-2.068 2.868 6.682 17.141 6.864 18.845-0.997z" fill="#fff"/>
<path d="m165.28 227.22c1.791-1.967 15.808-6.696 17.296-5.591-1.758 3.772-7.063 6.467-4.787 11.055l1.057 0.437 77.45-6.103c3.057-0.552 2.653-6.952 4.35-9.121 1.622-1.072 25.367 1.313 29.218 1.805 6.942 0.896 24.089 3.523 29.038 7.996 8.193 7.404-5.629 10.099-10.961 11.244-17.228 3.698-36.072 3.759-53.651 4.251-21.153 0.586-64.995 2.162-84.008-4.878-4.955-1.832-9.748-5.867-4.995-11.095h-7e-3zm93.231 2.688c-4.659 0.256-11.768 1.017-16.346 1.832-0.889 0.155-1.946 0.64-1.697 1.664l11.351 8.084 21.187-2.465c0.916-0.418 1.488-0.849 0.808-1.92-0.323-0.512-9.243-6.804-9.802-7.033-1.966-0.802-3.582-0.27-5.501-0.162z" fill="#fff"/>
<path d="m60.71 216.24 2.0198 27.958c7.4865 2.122 15.296 2.593 22.917 4.015 9.7015 1.819 20.521 5.133 30.027 6.332 3.03 0.384 6.113-0.155 9.17 0.256 4.382 0.586 11.755 3.301 13.296 7.909-2.807-2.351-5.756-4.237-9.385-5.086-1.326-0.31-3.178-1.098-2.72 1.031 5.097 1.354 12.058 3.725 13.459 9.438-3.097-2.682-6.369-5.524-10.395-6.771-2.323-0.721-4.336-1.718-3.744 1.375 2.848-1.53 13.391 6.137 13.459 7.747 0.02 0.431-0.97 1.226-2.02 0.687-1.151-0.593-3.164-3.133-5.171-4.264-2.397-1.348-5.527-2.87-8.281-1.819 2.646 1.812 6.033 2.155 8.705 4.089 0.815 0.586 4.491 3.84 1.717 3.685-3.103-0.169-6.544-3.517-10.146-4.009-19.261-2.627-40.3-1.778-59.851-4.109-12.455-1.482-21.342-4.79-24.264-18.162-2.3227-10.624-1.4542-22.224-1.6629-33.037l22.884 2.702-0.0135 0.033z" fill="#fff"/>
<path d="m251.15 145.59c1.03 20.574-9.614 39.578-7.319 60.529-6.49-2.028-12.872-4.163-19.51-5.733-8.14-1.92-16.36-3.126-24.634-4.325l2.74-16.222c0.882 1.664 1.696 2.573 3.703 2.722l-1.333 6.689 35.662 7.437c0.491-1.852-2.646-2.115-3.892-2.506-9.641-3.011-19.861-4.109-29.677-6.339-0.538-0.842 0.135-4.527 0.707-5.51 0.95-1.631 3.03-1.543 3.959-2.776 1.091-1.462 0.895-4.662 2.659-6.097l7.393-1.69c-0.667 5.564 1.541 9.337 3.379 2.021 1.098-0.203 0.822 1.859 1.69 2.027 0.727 0.142 1.475-1.105 2.006-1.111 0.431-7e-3 0.896 0.983 2.364 0.855 0.996-0.087 5.635-1.327 6.045-2.122-0.424-2.755-4.645 1.705-4.719-2.351l-2 2.021-0.013-3.362c-2.35-0.323-1.569 2.837-3.353 3.362v-2.978l-1.69-0.404-2.349 4.729v-4.715l-8.086 2.021 2.013-4.709-4.033 1.34 0.04-2.943c-2.181-1.961-1.979 1.798-4.079 1.596l3.359-20.877h-2.013l-2.74 20.837-2.646 0.04 4.04-24.926 42.32 3.47h7e-3zm-3.266 2.607-18.851-2.021c-0.255 1.475 0.108 1.361 1.313 1.684 2.141 0.579 14.536 1.94 16.522 1.698 0.922-0.115 2.073-0.499 1.016-1.361zm-6e-3 3.368-11.748-1.381-7.77 0.377c-0.559 1.516 1.508 0.971 2.343 1.004 4.726 0.169 9.015 1.145 13.445 1.374 1.34 0.068 4.363 0.681 3.73-1.374zm6e-3 4.042-12.791-1.347c-0.317 1.92 0.404 1.125 1.555 1.435 2.43 0.66 6.261 0.99 8.887 1.246 1.414 0.142 2.753 0.539 2.349-1.334zm-0.68 3.369-13.464-1.355c-0.317 1.92 0.403 1.125 1.555 1.435 2.248 0.607 6.49 1.098 8.887 1.247 1.373 0.087 3.541 0.694 3.022-1.334v7e-3zm-2.686 6.063c-2.619 0.128-5.096-1.038-7.749-0.681-0.909 0.121-2.134 0.505-1.003 1.354 2.619-0.128 5.096 1.038 7.749 0.681 0.909-0.122 2.134-0.506 1.003-1.354zm-4.046 33.69c-5.649-1.159-11.816-3.712-17.491-4.46-1.219-0.162-1.825-0.512-2.7 0.748 5.837 1.179 12.853 4.15 18.562 5.005 1.4 0.209 1.892 0.344 1.629-1.293z" fill="#fff"/>
<path d="m200.09 173.79c3.844-0.405 1.171 1.455 0.828 3.199-0.613 3.16-1.03 6.427-1.515 9.607-2.296-0.674-3.797-1.3-5.366 1.01l2.673 0.667-21.18 32.027c-4.235 4.143-13.533 2.425-13.768 11.829-0.155 6.211 2.949 7.121-5.467 10.018-13.344 4.594-21.093-10.705-27.482-19.665 1.353-4.682 4.578-8.926 4.632-14.032 0.013-1.509-0.673-2.742-0.727-4.049-0.135-3.436 5.251-5.538 8.099-7.033 2.054 6.184 6.645 11.149 10.025 16.626l-1.926 2.58 1.677 1.017 15.128-16.538c5.574-7.377 16.609-14.289 21.914-21.187 2.484-3.227 5.318-12.416 9.937-12.611 1.764-0.074 14.993 2.23 15.653 3.146 0.902 1.253-0.418 1.866-1.367 2.034-3.103 0.553-10.987-1.34-12.482-0.357-0.963 0.634-1.064 3.739-1.703 5.026-0.175 0.357-3.797 3.57-1.299 3.402 1.016-0.067 4.631-5.032 3.709-6.73l7e-3 0.014z" fill="#fff"/>
<path d="m105.14 316.62-62.955-0.68-0.9964 1.347 66.16 2.021c1.427 0.552 2.141 6.534 1.838 8.091-13.802 0.121-27.63-0.162-41.439-0.034-8.1665 0.074-16.616 1.347-24.91 0.728-21.335-1.59-16.535-32.182-19.161-47.191 1.3128 0.02 3.4336-0.451 3.9452 1.105 0.5117 7.249 0.8753 32.888 8.6445 35.812 1.259 0.472 2.6796 0.532 2.215-1.206-3.1104-0.249-4.9281-3.954-5.8707-6.595-2.9421-8.205-2.1679-18.802-3.5682-27.425l1.1176-1.603 11.681-1.442c1.7303 34.781 39.587 28.766 63.285 37.058l0.013 0.014z" fill="#fff"/>
<path d="m82.934 74.771-6.2747 2.8025c-8.6647 4.9177-14.946 12.396-17.612 22.123-0.6598 2.3913-1.4744 11.499-1.7908 12.018-0.1481 0.243-2.9758 1.125-4.4973 3.24-10.341 14.37 1.2792 35.658 19.383 28.523 3.3258 6.892 5.3927 13.77 4.7464 21.551-14.145 0.492-28.923 6.851-36.026 19.523-6.0996-4.817-8.5839-12.907-7.7491-20.54s8.1665-14.343 9.2572-22.4c0.9425-6.979-0.4174-14.989 0.1818-22.049 1.8648-21.759 18.299-42.01 40.381-44.806v0.0135z" fill="#fff"/>
<path d="m247.88 253.29 0.673 135.74c-0.04 0.801-0.296 1.327-1.111 1.583-2.693 0.842-8.759 0.815-11.008-0.91v-136.42h11.446z" fill="#fff"/>
<path d="m36.466 212.89c-0.8012 3.86-0.7944 7.842-0.6935 11.796 0.1886 7.242 0.8012 17.401 2.6257 24.32 0.6194 2.357 2.5045 5.355 2.7671 7.37 0.5453 4.129-1.3533 11.155-0.7002 16.154 0.1212 0.943 2.4775 1.758 1.4407 5.295-4.5579 1.024-14.96 3.22-18.851 0.687-2.4506-1.596-3.4874-9.162-3.9856-12.18-1.8649-11.27-5.5611-45.917-2.4439-55.483 2.7536-8.448 11.034-10.698 18.858-12.119 0.9224 3.88-4.7733 13.972 0.983 14.16z" fill="#fff"/>
<path d="m43.886 274.17h6.7257c1.4946 25.175 34.578 24.01 52.864 30.975 7.426 2.83 11.728 5.181 12.468 13.797 1.481 17.26 0.155 40.434-0.727 57.929-0.175 3.469 0.189 6.999 0.027 10.469l-2.053-0.297-2.007-31.002c-1.184-9.175 2.969-32.484-3.346-39.093-8.6912-9.101-42.569-4.426-56.243-17.825-2.7805-2.729-7.7087-11.453-7.7087-15.191v-9.769 7e-3z" fill="#FFD8CE"/>
<path d="m320.59 237.12c0.196 7.983-9.923 8.717-16.03 9.89-32.969 6.339-93.244 7.161-126.15 0.673-5.689-1.125-15.788-2.438-13.68-10.563 9.802 5.565 23.705 6.642 35.022 7.397 20.884 1.394 43.061 0.829 63.958 0.013 19.161-0.747 38.578-1.259 56.876-7.41z" fill="#fff"/>
<path d="m121.98 102.38c-4.403-1.314-13.956-8.0978-14.697-12.632-0.256-1.5764 1.616-4.4125-0.437-4.197-1.515 2.3377-2.027 4.8235-3.434 7.3498-5.7763 10.368-14.656 11.991-25.752 12.962l-3.8173 9.983-6.4295-5.733c-0.0943-30.793 53.577-46.557 54.566-7.733z" fill="#fff"/>
<path d="m132.74 177.84c-1.044 0.727-7.352-6.582-8.8-7.687-5.13-3.907-12.3-6.063-18.723-5.854l-0.444-8.051c7.399-1.744 13.007-4.56 17.074-11.209 2.491-4.069 2.74-8.388 7.203-10.981 4.37 14.915 14.59 28.739 3.69 43.782z" fill="#fff"/>
<path d="m256.62 209.5-2.814 10.987-1.01 1.011-72.926 6.851 10.301-13.258c21.907-3.55 44.36-3.274 66.442-5.598l7e-3 7e-3zm-4.706 1.347c-1.764-1.893-4.921 9.809-5.379 10.772 1.663 1.792 5.13-9.66 5.379-10.772zm-3.366 0.674-30.559 1.3c-2.242 4.103-3.413 12.368-9.829 9.815 1.912-2.364 3.622-5.086 5.049-7.754 0.539-1.017 0.498-1.812-0.666-1.34-0.943 0.384-6.874 10.354-6.403 10.772l38.624-2.776 3.784-10.017zm-40.395 4.715c-0.66-0.592-16.528 0.903-17.686 1.496-0.761 0.391-4.612 5.827-4.531 6.231 0.229 1.112 1.333 0.755 2.013 0.728 5.238-0.195 10.462-0.99 15.707-1.179l4.497-7.282v6e-3z" fill="#fff"/>
<path d="m105.82 268.79-9.0952 2.007c-16.414 0.027-35.548 3.658-51.759 1.947-0.6261-0.067-2.9959-0.445-3.1441-1.004l0.7204-13.729c5.0224 4.81 11.109 7.019 17.915 8.003 10.348 1.502 23.672 2.189 34.262 2.769 3.6827 0.202 7.4195-0.135 11.096 0.013l6e-3 -6e-3z" fill="#fff"/>
<path d="m45.912 329.41c0.1009 1.415-0.0135 2.796-0.1886 4.197-2.2688 18.142-7.8702 43.155-12.26 61.155-0.377 1.543-0.855 3.066-1.0907 4.635l-2.6189 0.074 10.099-70.054h6.0593v-7e-3z" fill="#fff"/>
<path d="m159 328.74 9.264 68.579c0.438 4.285-2.72 3.248-2.996-0.417l-12.839-67.192c0.297-1.65 5.238-0.822 6.571-0.977v7e-3z" fill="#fff"/>
<path d="m64.177 143.12c13.593-0.809 10.159-29.527-4.2752-28.463-14.858 1.098-10.375 29.332 4.2752 28.463zm-7.6818-21.733c-6.6046 1.435-5.6755 14.767 2.0467 15.905 10.388 1.523 8.833-18.269-2.0467-15.905z" fill="#fff"/>
<path d="m206.14 375.9-2.013 8.077c1.919 0.35 1.104-0.471 1.515-1.482 0.848-2.082 1.636-7.094 4.551-5.585l-2.026 7.734c2.046 0.371 1.03-0.613 1.407-1.59 1.043-2.708 1.225-6.871 4.645-5.814-1.279 3.746-3.029 6.676-1.339 10.772l-25.873 4.642-0.734-0.573-1.677-10.799c5.521 0.31 9.702 0.115 14.61-2.566 2.457-1.341 3.13-3.827 6.934-2.823v7e-3z" fill="#fff"/>
<path d="m127.38 396.1c-1.198 3.759 2.538 7.512 6.059 5.747 0.357-0.182 6.261-8.057 6.039-4.056-0.02 0.411-5.157 4.554-4.692 6.393 3.501-0.586 3.945-5.719 8.072-5.375-2.424 2.923-5.393 5.153-5.406 9.404l-26.196-3.389 1.313-10.745c4.827 1.644 9.688 2.405 14.804 2.021h7e-3z" fill="#fff"/>
<path d="m278.85 146.18-22.554 78.125-0.962-2.937c7.25-24.778 13.673-49.851 21.16-74.521l2.356-0.667z" fill="#fff"/>
<path d="m162.38 327.39h-15.484l3.036-17.522c6.45-0.445 11.492 12.308 12.448 17.522z" fill="#fff"/>
<path d="m235.06 388.72c-1.804 5.928 13.472 4.251 14.542 2.688 0.559-0.815-0.108-2.621 0.68-2.756 5.326 0.344 11.829 0.364 16.892 1.954 0.889 0.283 2.047 0.243 2.255 1.442-12.542 2.627-27.199 2.688-40.085 2.054-2.329-0.114-5.709-0.438-8.045-0.707-0.862-0.101-3.575-0.236-3.703-1.334 6.026-0.317 11.324-4.17 17.471-3.348l-7e-3 7e-3z" fill="#fff"/>
<path d="m270.1 394.08-0.034 3.335c-17.336 2.122-34.726 0.902-52.143 0.707-2.04 0.357-2.1-4.096-1.333-4.055 17.653 2.856 35.824 2.593 53.517 6e-3l-7e-3 7e-3z" fill="#fff"/>
<path d="m179.22 231.73c-0.498-1.59 1.199-1.812 2.404-1.954 21.092-2.425 45.531-5.288 66.57-6.157 1.165-0.047 6.342-0.35 6.41 1.038l-75.384 7.066v7e-3z" fill="#fff"/>
<path d="m228.36 385.33c0.161 1.509 0.148 1.772-1.138 2.56-2.269 1.374-13.055 3.766-16.353 4.52-5.851 1.334-14.798 3.557-20.582 3.719-1.232 0.034-2.201 0.088-2.989-1.044l41.055-9.755h7e-3z" fill="#fff"/>
<path d="m126.03 134.05c1.521-9.263 0.127-18.762-2.7-27.614 4.43 1.456 6.961 7.485 7.399 11.79 0.532 5.221 0.148 12.752-4.699 15.824z" fill="#fff"/>
<path d="m152.28 410.93c0.182 0.922-0.235 1.623-1.124 1.899-3.279 1.038-23.341-1.32-28.074-1.994-2.222-0.316-9.163-1.273-10.712-2.081-1.366-0.708-1.286-1.092-1.151-2.547l41.061 4.716v7e-3z" fill="#fff"/>
<path d="m200.08 371.85c1.367 6.097-5.756 7.761-10.449 8.077-4.719 0.317-4.988 0.041-5.716-4.695l16.165-3.375v-7e-3z" fill="#fff"/>
<path d="m227.69 383.98-13.465 3.368c-0.067-3.408-0.545-7.841 2.996-9.828 3.804 0.68 10.287 1.765 10.469 6.46z" fill="#fff"/>
<path d="m71.496 141.46c0.9223-2.634 2.3698-4.823 2.693-7.74 0.9089-8.3-1.9457-16.882-10.079-20.237l-6.0794-0.984c16.333-4.547 25.732 19.2 13.465 28.961z" fill="#fff"/>
<path d="m152.28 409.58-12.758-1.374c-0.855-2.412 3.36-8.124 5.582-7.936 2.349 0.196 8.2 6.346 7.176 9.31z" fill="#fff"/>
<path d="m131.41 390.72c-0.101 5.841-10.375 4.096-14.165 3.052-2.586-0.707-5.036-1.361-3.232-4.305l17.397 1.253z" fill="#fff"/>
<path d="m127.37 106.43c-5.069-1.301-3.097-2.473-3.366-5.046-0.754-7.0803-3.171-12.22-6.046-18.533 7.204 5.3018 8.82 15.171 9.412 23.572v7e-3z" fill="#fff"/>
<path d="m136.12 395.44c0.861 0.937-5.528 7.956-7.339 2.89 0.747-4.224 3.905-4.547 7.339-2.89z" fill="#fff"/>
<path d="m211.52 174.47c0.095 0.903-1.528 1.179-2.235 1.455-1.084 0.418-5.42 2.142-5.837 0.216-0.565-2.634 6.739-1.456 8.072-1.664v-7e-3z" fill="#fff"/>
<path d="m210.85 177.17-6.726 1.347c-0.168 4.594 8.059-0.027 6.726-1.347z" fill="#fff"/>
<path d="m75.192 223.64c-1.158-0.269-0.9089-1.96-0.0134-2.001 0.175-7e-3 1.131 0.66 2.0062 0.667 5.9179 0.054 10.085-0.141 14.825-4.062 2.0736 2.324-5.8976 5.396-6.7257 5.396-2.5718 0-8.0386 0.485-10.099 0h0.0067z"/>
<path d="m109.18 115.18c-0.956 4.959 5.393 10.422 4.726 14.457-0.491 2.951-5.534 4.063-7.756 2.392l0.694-1.348c2.598 1.348 4.8 0.472 5.722-2.344-2.693-4.204-4.874-8.03-5.392-13.143h2.013l-7e-3 -0.014z"/>
<path d="m114.58 138.77c-1.704 7.861-15.977 7.679-18.845 0.997-1.2455-2.897 4.1809 1.818 4.6656 2.068 3.232 1.684 5.776 1.765 9.062 0.222 2.1-0.99 2.996-2.883 5.117-3.287z"/>
<path d="m93.396 117.89c3.7096-0.559 3.851 5.578 1.2388 6.016-2.1746 0.363-3.4066-4.716-1.2388-6.016z"/>
<path d="m115.99 120.51-0.666-4.203c3.568-4.191 5.628 3.206 2.868 4.197h-2.208l6e-3 6e-3z"/>
<path d="m96.399 111.14c-1.5081 0.021-2.6055-0.741-4.1876-0.552-2.3631 0.283-3.1575 2.25-5.2244 2.573-2.3092-2.492 9.2235-6.878 9.4188-2.021h-0.0068z"/>
<path d="m112.56 109.12c-2.39-2.56 6.779-4.473 8.058-1.684-1.339 1.799-3.049 0-4.995 0.324-0.929 0.154-2.552 1.906-3.07 1.36h7e-3z"/>
<path d="m258.51 229.91c1.919-0.108 3.535-0.64 5.501 0.162 0.559 0.229 9.479 6.521 9.802 7.033 0.68 1.071 0.108 1.509-0.808 1.92l-21.187 2.465-11.351-8.084c-0.256-1.024 0.808-1.509 1.697-1.664 4.578-0.815 11.681-1.569 16.346-1.832zm12.26 7.875-9.116-6.716-17.814 2.014 9.15 6.73 17.78-2.028z"/>
<path d="m240.47 198.73c0.263 1.637-0.236 1.509-1.629 1.293-5.709-0.855-12.725-3.826-18.562-5.005 0.875-1.253 1.488-0.91 2.7-0.748 5.675 0.748 11.842 3.301 17.491 4.46z"/>
<path d="m247.88 151.57c0.626 2.055-2.397 1.442-3.73 1.374-4.43-0.222-8.719-1.205-13.445-1.374-0.835-0.027-2.895 0.512-2.343-1.004l7.77-0.377 11.748 1.381z"/>
<path d="m247.89 148.2c1.064 0.862-0.094 1.246-1.016 1.361-1.986 0.242-14.381-1.119-16.522-1.698-1.198-0.323-1.562-0.209-1.313-1.684l18.851 2.021z"/>
<path d="m247.21 158.98c0.526 2.021-1.649 1.421-3.022 1.333-2.397-0.155-6.639-0.64-8.887-1.246-1.158-0.316-1.872 0.485-1.555-1.435l13.464 1.354v-6e-3z"/>
<path d="m247.89 155.61c0.411 1.873-0.929 1.476-2.349 1.334-2.626-0.256-6.463-0.586-8.887-1.246-1.158-0.317-1.872 0.485-1.555-1.435l12.791 1.347z"/>
<path d="m244.52 165.04c1.131 0.842-0.094 1.232-1.003 1.354-2.653 0.357-5.13-0.809-7.749-0.681-1.131-0.842 0.094-1.233 1.003-1.354 2.653-0.357 5.13 0.809 7.749 0.681z"/>
<path d="m248.55 211.53-3.784 10.017-38.624 2.776c-0.471-0.411 5.46-10.388 6.403-10.772 1.158-0.472 1.205 0.323 0.666 1.34-1.42 2.668-3.137 5.39-5.049 7.754 6.416 2.553 7.594-5.712 9.829-9.815l30.559-1.3z"/>
<path d="m208.16 216.24-4.497 7.283c-5.238 0.188-10.469 0.983-15.707 1.179-0.68 0.027-1.784 0.384-2.013-0.728-0.081-0.411 3.77-5.847 4.531-6.231 1.158-0.593 17.026-2.095 17.686-1.496v-7e-3zm-2.02 1.348c-5.487 1.798-15.397-1.395-17.497 5.376l14.34-0.802 3.157-4.581v7e-3z"/>
<path d="m246.54 221.62c1.663 1.792 5.13-9.66 5.379-10.772-1.764-1.893-4.921 9.809-5.379 10.772z"/>
<path d="m56.496 121.38c10.873-2.371 12.428 17.428 2.0467 15.905-7.7154-1.131-8.6445-14.463-2.0467-15.905zm1.8649 1.516c-6.9546-0.02-5.3186 13.743 1.9861 12.503 5.7899-0.983 3.9116-12.49-1.9861-12.503z"/>
<path d="m197.76 76.078c-4.221-23.127-47.935-24.542-56.377-4.4731-4.875 11.587-0.182 21.146 9.432 27.829l-3.245 9.681c0.585 0.579 8.584-6.03 10.078-6.447 0.983-0.277 8.8 1.731 11.109 1.771 16.535 0.297 32.336-10.091 29.003-28.361z" fill="#fff"/>
<path d="m270.77 237.78-17.78 2.028-9.15-6.73 17.814-2.014 9.116 6.716z" fill="#fff"/>
<path d="m206.14 217.59-3.157 4.581-14.34 0.801c2.107-6.777 12.017-3.584 17.497-5.376v-6e-3z" fill="#fff"/>
<path d="m58.36 122.9c5.8909 0.013 7.776 11.52 1.9861 12.503-7.298 1.24-8.934-12.517-1.9861-12.503z" fill="#fff"/>
<path d="m327.82 89.981c0.25 1.8676 0.283 3.4115 0.277 4.3891 0.047 0.1685 0.431 1.5371 1.334 1.6922 0.431 0.0742 0.795-0.155 0.95-0.2494 2.177-1.3956 1.766-7.5915 1.692-8.7174-0.182-2.7778-0.526-3.3643-0.998-3.6812-1.031-0.7079-2.864-0.4045-3.646 0.6068-0.835 1.0787-0.074 2.4608 0.391 5.9599z" fill="#fff"/>
<path d="m324.39 97.73c-0.061 0.0135-0.311 0.0539-0.587-0.0539-0.803-0.3234-0.999-1.6506-1.202-3.153-0.135-0.9971-0.06-1.0713-0.229-2.3716-0.128-1.0106-0.196-1.5159-0.331-1.9403-0.249-0.8085-0.621-1.4418-1.356-2.7084-0.223-0.384-0.412-0.6872-0.54-0.8961 0.218-0.3836 0.375-0.6592 0.727-0.9703 0.576-0.5082 0.965-0.6679 1.817-0.7305 0.545-0.04 1.118 0.216 1.554 0.4298 0.648 0.3178 0.943 0.8062 1.139 1.1228 1.356 2.1829 1.275 7.4043 0.243 9.8567-0.183 0.4379-0.547 1.2733-1.242 1.4081" fill="#fff"/>
<path d="m332.69 82.981c0.148-0.7078 1.469-6.9904 3.458-9.1542 0.29-0.3168 0.89-0.9639 1.786-1.0651 0.917-0.1078 1.706 0.4315 2.009 0.6606 4.058 2.9795-2.339 12.019-2.11 15.909 0.182 3.0267 3.607 4.658 2.258 10.63-0.761 3.3565-3.397 7.9545-3.882 10.286-0.755 3.613 1.975 1.685 2.602 3.418 0.788 2.191-0.796 6.471 0.849 8.925l16.926-0.068c12.289-10.637 24.719-19.211 41.457-20.896l1.496-8.5682c-7.92-1.6717-13.92-8.2913-16.117-15.915-0.964-3.3435-0.701-7.0307-1.375-9.9293-0.148-0.6404-1.679-0.9033-2.353-1.8336-3.283-4.5299-3.202-9.9361 0.31-14.311 0.769-0.9572 2.919-1.5976 3.108-2.8447 0.175-1.1459-1.005-3.8356-1.065-5.4332-0.175-4.4355-0.202-8.2913 0.849-12.612 0.324-1.3347 1.544-2.602 1.706-3.7008 0.249-1.7728-3.121-10.28 1.671-9.5451l4.099 2.5615c7.637-7.1925 19.11-7.8262 28.972-6.6667 3.101-13.226 24.483-16.495 29.997-3.6334 0.371 0.86957 2.764 10.55 2.751 11.284-0.095 4.6782-3.587 7.3544-6.553 10.28 2.036 5.7365 3.095 11.203 2.481 17.351-0.323 3.2222-2.555 8.2779-2.514 10.88 0.054 3.6535 2.366 4.2602 0.027 9.5451-2.387 5.386-6.95 4.4894-8.265 6.0601-0.883 1.0583-2.204 5.0557-3.208 6.7409-3.917 6.5858-7.584 10.698-6.209 19.32 0.25 1.078 10.59 1.678 12.862 2.11 22.676 4.3 30.3 21.011 36.037 41.483 2.878 10.273 7.853 33.22 4.53 42.953-3.189 9.337-15.457 11.541-23.014 15.444 0.54 7.442 1.362 16.758 0.614 24.173-0.432 4.26-2.986 6.134-3.351 8.109-0.687 3.708-0.269 8.992-0.687 12.794-2.13 19.192-5.77 38.221-8.002 57.386-2.932 25.238-4.267 50.712-5.466 76.098 0.256 1.894-2.677 1.368-2.744 2.049 0.944 4.267 2.703 18.538 1.058 21.881-0.802 1.631-5.676 2.292-7.516 2.595-6.323 1.052-15.672 1.854-22.123 2.144-2.906 0.128-17.109 0.431-18.41-0.856-0.701-0.694-0.438-2.454-1.24-2.589l-19.481 2.063c-4.2-0.762-16.078 1.995-17.918-2.285-5.264-12.208 17.661-18.342 25.029-22.4l-0.128-2.184c-1.26-0.216-2.555-0.196-2.609-1.766-0.667-10.995-1.078-22.063-2.015-33.038-0.897-10.542-2.643-21.166-3.357-31.695-1.834-27.031-1.173-54.501-2.649-81.579-2.569-2.602-3.661-3.155-4.085-7.401-0.856-8.501 0.492-18.079 0.667-26.62h-46.202c-2.568 0-2.319-7.752-2.663-9.471-4.166-20.755-11.614-41.814-16.407-62.509-0.647-1.624 2.447-4.873 3.566-4.873h11.122l0.681-11.453h4.038c-7e-3 -2.663-1.989-4.267-2.885-6.896-1.423-4.173-2.865-13.307 0.141-16.906 0.688-0.8224 1.544-0.3034 3.209-1.3617 1.827-1.1662 2.096-2.1706 3.579-2.4806 1.16-0.2427 1.382 0.2898 2.697 0 1.179-0.2629 1.2-0.7618 2.696-1.3482 0.856-0.3371 1.921-0.755 3.148-0.4854 1.052 0.2292 1.76 0.8629 2.117 1.2336v0.0068zm95.849-41.868c-13.259 2.9592-28.44 0.9504-39.421-7.415-1.274 0.2966-4.651 13.583-3.714 14.83 6.181-1.8403 9.606 3.6738 11.237 8.7834l4.22 0.6404c0.755-6.0332 10.731-10.172 14.884-5.7298 1.274 1.3684 2.298 5.4466 3.35 6.1005 1.409 0.8763 13.414-1.7729 13.475-2.7098-2.885-4.5232-4.746-8.9857-4.031-14.493v-0.0067zm-43.782 8.7968c-0.081 2.7369-2.569 15.248-0.755 16.515 13.037 1.9279 14.614-17.816 0.755-16.515zm-2.737 14.79 0.674-13.482c-4.685 2.6829-5.244 10.448-0.674 13.482zm25.427-11.985c-8.157 1.8807-6.977 18.517 4.435 15.888 8.743-2.0155 6.822-18.484-4.435-15.888zm-4.861 39.623c3.196 0.4315 7.152-0.3168 10.449 0-0.533 3.6536-4.577 6.0399-7.624 7.5431-3.714 1.8404-6.775 0.2764-5.818 5.5544 1.342 7.402 12.983 7.53 18.619 5.224 11.001-4.503 6.1-11.385 8.77-20.216 1.934-6.3971 8.567-11.129 7.914-17.681 0.856-1.274 5.217 0.4921 8.089-3.3906 7.489-10.145-7.638-18.861-9.741-5.3523l-1.948-1.1325 0.6-4.9343-12.403 2.6154c-2.34 14.122-19.205 13.266-19.279-1.2673h-4.038c-0.351 1.3145 1.206 1.5437 1.045 2.7099-0.344 2.4402-6.303 8.9587-3.634 10.671l5.285 0.1012c0.29 2.5211-3.627 2.184-5.211 1.5099-4.813-2.056-0.384-7.6779-0.856-8.2508-2.804 1.82-5.392 2.3997-8.763 2.0155-1.051 11.291 7.051 22.717 18.544 24.274v0.0067zm-64.038-18.187c-1.611 0.0202-4.773 9.5451-4.928 11.298-0.209 2.3796 1.847 3.1548 3.114 1.0314 0.728-1.2134 4.321-12.356 1.814-12.329zm-10.449 20.209c0.047 0.1685 0.432 1.537 1.335 1.692 0.431 0.0741 0.795-0.155 0.95-0.2494 2.178-1.3954 1.767-7.5903 1.692-8.716-0.182-2.7773-0.525-3.3637-0.997-3.6806-1.032-0.701-2.865-0.3977-3.647 0.6067-0.836 1.0786-0.074 2.4605 0.391 5.959 0.249 1.8672 0.283 3.4109 0.276 4.3883zm-3.35-8.3992c-0.135-0.1954-0.371-0.4853-0.755-0.7145-0.836-0.4988-1.705-0.3101-1.921-0.2629-1.281 0.3034-1.847 1.456-1.921 1.6178 0.674 1.1527 1.57 2.393 1.995 3.9367 0.492 1.7729 0.101 7.6307 2.238 7.1858 0.634-1.3077 1.685-3.9636 1.429-7.3678-0.141-1.8403-0.62-3.3367-1.065-4.3951zm-7.435 6.3769c-0.553 2.4402 1.55 8.9115 3.552 4.5434 1.504-3.2895-1.853-12.828-4.806-7.4824-1.618 2.9323-0.694 9.7878 0.236 13.07 1.159 4.072 4.361 5.925 3.714 10.105l14.163 0.674c-0.789-7.516 6.276-10.071 4.429-18.248-0.27-1.1999-3.89-7.3611-5.103-6.0196-1.288 2.0694 0.836 6.2623 0.364 7.3948-0.614 1.4695-1.915 3.5322-3.425 5.3856-1.328 1.625-1.429 3.223-2.682 4.739-0.405 0.041-0.668-0.04-0.823-0.202-0.553-0.566 0.337-2.258 1.288-4.058 0.391-0.748 0.62-1.085 0.728-1.227 0.627-0.883 0.97-1.0245 1.516-1.739 0.634-0.8224 1.234-2.0291 0.971-2.2785-0.276-0.2561-1.112 0.8494-2.487 0.7685-0.87-0.0539-1.092-0.5325-1.665-0.3371-0.621 0.2157-0.553 0.8494-1.416 1.4696-0.148 0.1011-0.627 0.4516-1.287 0.546-1.153 0.1685-1.477-0.5932-2.38-0.4584-1.058 0.155-1.052 1.2539-2.231 1.5299-1.079 0.256-2.07-0.438-2.285-0.5862-1.018-0.7078-1.376-1.7661-1.578-2.6559-0.195-0.8561-0.465-7.1454 1.2-4.9141l7e-3 -0.0203zm42.468 30.334h43.141l14.857 59.299 34.332-10.111-6.047-26.262 2.009 0.465 5.743 24.496 7.072-0.694-1.477 1.517-40.971 11.985 1.665 6.721h23.593c1.726 0 1.281 7.125-1.476 7.961l-19.758 0.802 0.681 8.089c1.106 1.132 27.456-4.604 31.143-5.588 8.379-2.232 24.308-6.451 25.986-16.482 2.832-16.906-7.428-55.97-18.733-69.249-7.947-9.336-21.914-12.586-33.697-12.161-5.44 12.397-26.634 15.356-30.402 0.425-14.661 0.849-27.523 8.574-37.668 18.793l7e-3 -6e-3zm-45.165 0h22.92v-8.096c-7.362 0.101-14.682 0.269-21.902-1.355l-1.018 9.444v7e-3zm85.61 2.022h-98.754c-0.412 0-1.295 1.389-1.011 2.015 2.17-0.485 4.368 0.614 6.329 0.614 0.991 0 2.164-0.641 3.418-0.641l88.892-0.08 1.126-1.908zm2.022 1.355c-2.447-0.148-2.251 2.575-1.853 4.199l14.809 58.68 2.548 1.153-15.504-64.032zm11.46 64.032-15.841-61.343h-97.406l16.178 61.343h97.069zm2.696 7.415 1.193-5.083-0.856-0.984h-97.743c-0.189 0-1.571 0.694-1.712 1.132l0.027 4.935h99.091zm26.29-6.067h-22.582c-3.472 8.008-2.137 5.554 3.343 5.366 4.308-0.149 14.062 0.876 17.419-0.108 2.251-0.661 1.887-3.458 1.82-5.258zm-25.279 8.089c-7.502 0.29-15.079-0.216-22.582 0 1.22 2.656 4.449 2.669 6.748 3.735 1.011 0.465 1.665-0.095 1.341 1.658-6.08 1.348-9.073-6.209-14.149-5.056 8.211 8.824 21.49 5.878 31.689 2.71l0.708-1.362c-0.135-3.909-2.346-1.739-3.748-1.685h-7e-3zm-30.671 0h-21.571c0.85 5.359-2.925 28.669 1.355 31.339 2.44 1.523 9.984 0.842 13.132 1.024 12.598 0.735 25.77 1.267 38.396 1.375 12.511 0.101 25.049 0.27 37.472-1.018 4.18-9.444 0.924-20.114 1.315-30.024-11.271 2.96-22.892 5.98-34.601 6.101l-2.177-3.997c-10.88 3.404-23.803 5.723-32.667-3.128-0.546-0.539-0.573-1.625-0.654-1.679v7e-3zm-12.133 33.711h-6.074l0.681 12.808c2.609-0.532 6.201-11.992 5.386-12.808h7e-3zm60.661 1.349-58.214-0.594c-1.025 0.351-2.636 7.793-3.681 9.802-1.045 2.008-2.636 3.606-4.024 5.413 1.382 20.33 0.68 40.937 1.894 61.2 0.647 10.779 2.467 21.605 3.357 32.37 1.011 12.242 1.328 24.584 2.42 36.806 7.381 1.826 15.025 1.456 22.521 0.586l6.134-65.036c-2.763-17.237-1.772-36.792-4.934-53.773-0.809-4.354-3.721-3.781-5.918-6.215-0.863-0.95-0.122-1.671 0.343-1.678s7.139 4.327 7.072 5.723l4.738 57.951 6.728 63.904c0.6 1.443 16.306 1.571 18.544 1.153 0.769-0.142 1.362-0.229 1.591-1.105 1.025-18.39 1.914-36.833 3.472-55.175 1.927-22.75 6.343-46.95 7.435-69.404 0.101-2.083 0.013-4.254-0.135-6.33-6.215-2.258-9.255-9.336-9.336-15.605l-7e-3 7e-3zm10.118-7e-3h-8.089c-0.222 5.514 2.4 12.457 8.089 14.156v-14.156zm8.096 0h-6.074l-12.133 146.96 4.017-0.04c1.888-28.143 3.425-56.421 6.869-84.464 0.924-7.509 9.545-60.223 7.321-62.454zm-37.082 148.98c-2.413 0.229-4.017 0.108-4.57-2.508-1.759-17.209-2.98-34.52-4.928-51.703-0.074-0.654-0.296-2.534-1.28-2.413-0.311 12.713-2.212 25.407-3.371 38.086-0.479 5.245 0.775 14.446-3.168 17.466l1.146 9.828c0.519 0.553 12.754-5.143 13.947-5.939 1.011-0.674 2.48-1.294 2.224-2.824v7e-3zm-18.874-1.355h-16.516c-0.134 0-1.739-1.295-1.705 1.011 0.067 5.17 14.857 4.139 18.133 2.265l0.088-3.283v7e-3zm39.778 1.355c-6.573-0.317-12.66 1.543-19.212-7e-3 -1.699 3.761 8.096 4.739 10.671 4.671 2.589-0.067 10.084-1.105 8.541-4.664zm-39.111 3.363c-5.352 1.841-10.651 2.926-16.158 0.991-3.424-1.2-4.489-4.125-8.103 0.344 2.306 0.357 4.975 2.103 4.712 4.725-3.33-1.22-4.84-5.5-8.756-4.037 1.193 2.474 4.921 3.572 4.712 6.734l-6.498-5.278-2.919 1.57c3.168 2.663 5.298 6.155 5.413 10.415 6.147-0.485 13.104-0.472 19.151-1.375 2.305-0.344 4.3-3.499 6.08-5.359 0.762-0.796 2.359-1.422 2.717-2.002 1.152-1.874-0.513-4.638-0.344-6.741l-7e-3 0.013zm39.778 1.349c-6.404 1.321-11.055 1.887-17.519 0.343-2.677-0.64-2.913-2.905-6.553-0.498-0.64 0.424-1.206-0.068-0.862 1.503 1.375-0.526 6.471 3.06 5.386 4.051-3.445-0.094-4.834-4.375-8.757-3.357 1.463 2.393 5.75 2.851 6.06 6.053-1.395 1.281-6.707-5.925-9.43-4.705 1.226 2.778 5.723 3.155 5.386 6.734-0.6 0.681-5.629-4.476-6.735-5.055-1.105-0.58-1.563-0.668-1.348 0.674 3.209 2.103 5.386 5.79 5.42 9.754 9.902-0.148 19.879-1.355 29.566-3.404l-0.607-12.073-7e-3 -0.02zm-68.757 14.155c-0.519-2.885-2.629-8.844-5.878-9.329-3.297-0.492-10.294 6.235-8.945 10.004l14.83-0.681-7e-3 6e-3zm37.749 2.023c0.33-7.732-5.608-12.936-11.81-6.081-1.133 1.254-3.917 4.847-2.009 6.081h13.819zm-16.178-2.016-36.394 3.02 1.82 1.557c11.547 0.492 23.067-1.388 34.58-1.887v-2.69h-6e-3zm47.86 0c-15.099 1.901-30.199 4.045-45.494 3.364-0.829 0.101-0.701 2.326 1.341 2.703 2.622 0.479 9.168 0.162 12.161 0.027 6.613-0.303 24.072-1.382 29.613-3.418 1.247-0.458 2.561-1.071 2.373-2.676h6e-3z"/>
<path d="m487.87 184.69c0.451-10.57-1.74-20.978-4.726-31.001 2.144-0.169 2.353 2.703 2.865 4.206 2.151 6.282 3.95 17.958 3.222 24.463-0.114 1.011-0.141 2.083-1.368 2.332h7e-3z"/>
<path d="m435.28 234.58c0.081 6.269 3.121 13.34 9.336 15.605 0.149 2.069 0.236 4.246 0.135 6.329-1.099 22.461-5.507 46.661-7.435 69.405-1.557 18.342-2.44 36.785-3.472 55.174-0.222 0.877-0.822 0.964-1.591 1.106-2.244 0.418-17.944 0.29-18.544-1.153l-6.727-63.904-4.739-57.951c0.067-1.403-6.606-5.73-7.071-5.723-0.465 6e-3 -1.207 0.728-0.344 1.678 2.197 2.433 5.109 1.861 5.918 6.215 3.162 16.981 2.171 36.536 4.935 53.772l-6.135 65.037c-7.495 0.869-15.14 1.24-22.521-0.587-1.092-12.221-1.409-24.57-2.42-36.805-0.89-10.765-2.716-21.591-3.357-32.37-1.213-20.27-0.512-40.877-1.894-61.201 1.382-1.806 2.952-3.357 4.024-5.413s2.656-9.457 3.681-9.801l58.214 0.593 7e-3 -6e-3z" fill="#FFD8CE"/>
<path d="m359.78 122.67c10.145-10.22 23.013-17.945 37.668-18.794 3.768 14.931 24.961 11.972 30.401-0.425 11.777-0.424 25.751 2.825 33.698 12.161 11.311 13.28 21.564 52.343 18.733 69.249-1.678 10.024-17.607 14.251-25.986 16.482-3.687 0.984-30.038 6.721-31.143 5.588l-0.681-8.089 19.758-0.802c2.763-0.836 3.202-7.961 1.476-7.961h-23.593l-1.665-6.721 40.971-11.985 1.476-1.517-7.071 0.694-5.743-24.496-2.009-0.465 6.047 26.262-34.332 10.112-14.857-59.3h-43.142l-6e-3 7e-3z" fill="#fff"/>
<path d="m413.71 190.08h-97.069l-16.178-61.343h97.406l15.841 61.343zm-60.17-36.246c-8.459 1.469-7.981 14.877 1.214 15.376 11.554 0.62 11.284-17.547-1.214-15.376z" fill="#fff"/>
<path d="m386.75 199.52c0.074 0.047 0.108 1.133 0.654 1.679 8.864 8.844 21.787 6.531 32.667 3.127l2.177 3.998c11.709-0.115 23.337-3.142 34.601-6.101-0.391 9.909 2.865 20.58-1.315 30.024-12.423 1.281-24.961 1.119-37.472 1.018-12.626-0.101-25.798-0.634-38.397-1.375-3.148-0.182-10.691 0.499-13.131-1.025-4.28-2.669-0.505-25.979-1.355-31.338h21.571v-7e-3z" fill="#fff"/>
<path d="m402.59 92.338c-11.493-1.5504-19.589-12.983-18.544-24.274 3.37 0.3775 5.959-0.1955 8.763-2.0155 0.472 0.573-3.957 6.1949 0.856 8.2509 1.584 0.6741 5.508 1.0111 5.211-1.51l-5.285-0.1011c-2.669-1.7055 3.296-8.2239 3.634-10.671 0.161-1.1661-1.396-1.3953-1.045-2.7098h4.037c0.075 14.533 16.94 15.39 19.28 1.2673l12.403-2.6155-0.6 4.9343 1.948 1.1325c2.096-13.509 17.23-4.7995 9.741 5.3523-2.865 3.8828-7.233 2.1167-8.09 3.3907 0.654 6.5522-5.979 11.284-7.913 17.681-2.67 8.8238 2.231 15.713-8.77 20.216-5.636 2.305-17.277 2.177-18.619-5.224-0.957-5.285 2.103-3.721 5.818-5.5546 3.047-1.51 7.084-3.8963 7.624-7.5431-3.297-0.3168-7.254 0.4314-10.449 0v-0.0068zm40.109-31.001c-4.052-0.0742-6.883 4.3074-6.734 8.0823 1.847 0.3708 1.152-0.4718 1.631-1.3616 1.126-2.0964 1.699-4.4018 4.631-4.6984l0.465-2.0223h7e-3zm-34.379 16.852c-4.206 1.4358-5.858 4.0715-10.819 3.0738-0.6-0.1213-5.777-2.9525-4.678-0.728 1.901 3.8491 14.587 3.1211 15.497-2.3458z" fill="#fff"/>
<path d="m453.49 234.57c2.224 2.231-6.397 54.945-7.321 62.454-3.444 28.043-4.988 56.327-6.869 84.464l-4.017 0.04 12.133-146.96h6.074z" fill="#FFD8CE"/>
<path d="m416.41 197.5h-99.091l-0.027-4.935c0.135-0.444 1.523-1.132 1.712-1.132h97.743l0.856 0.984-1.193 5.083z" fill="#fff"/>
<path d="m428.54 41.113c-0.715 5.514 1.146 9.9698 4.031 14.493-0.061 0.937-12.06 3.5862-13.475 2.7099-1.052-0.6539-2.07-4.7322-3.35-6.1006-4.153-4.4422-14.129-0.3033-14.884 5.7298l-4.22-0.6404c-1.631-5.1096-5.056-10.624-11.237-8.7834-0.937-1.247 2.44-14.533 3.714-14.83 10.981 8.3722 26.155 10.374 39.421 7.415v0.0068z" fill="#fff"/>
<path d="m437.98 388.26 0.607 12.073c-9.687 2.049-19.663 3.262-29.566 3.404-0.033-3.964-2.211-7.651-5.419-9.754-0.216-1.342 0.283-1.234 1.348-0.675 1.065 0.56 6.134 5.737 6.734 5.056 0.33-3.579-4.159-3.957-5.386-6.734 2.723-1.22 8.035 5.993 9.43 4.705-0.316-3.202-4.597-3.667-6.06-6.053 3.93-1.011 5.312 3.269 8.757 3.357 1.085-0.991-4.011-4.577-5.386-4.051-0.344-1.571 0.222-1.079 0.863-1.504 3.64-2.406 3.876-0.141 6.552 0.499 6.464 1.544 11.116 0.978 17.519-0.344l7e-3 0.021z" fill="#fff"/>
<path d="m317.32 92.338c-1.665-2.2312-1.396 4.0648-1.2 4.9142 0.384 1.6987 1.234 2.393 1.577 2.6559 0.229 0.1824 0.661 0.5054 1.308 0.6064 0.256 0.041 0.742 0.115 1.234-0.114 0.687-0.324 0.6-0.8901 1.361-1.2609 0.432-0.2089 0.823-0.2022 0.904-0.2022 0.532 0.0202 0.714 0.2629 1.146 0.4044 1.038 0.3303 2.13-0.4044 2.224-0.4651 0.863-0.5932 0.728-1.2605 1.416-1.4695 0.593-0.1753 0.809 0.2696 1.665 0.337 1.348 0.1012 2.197-1.0313 2.487-0.7684 0.256 0.2359-0.31 1.2942-0.688 1.8672-0.532 0.8022-0.883 0.937-1.536 1.7935-0.405 0.525-0.634 0.937-0.985 1.584-0.829 1.516-1.887 3.444-1.287 4.058 0.155 0.162 0.425 0.242 0.822 0.202 1.254-1.517 1.355-3.108 2.683-4.739 1.51-1.8536 2.811-3.9164 3.424-5.3859 0.472-1.1325-1.651-5.332-0.364-7.3948 1.214-1.3414 4.827 4.8198 5.103 6.0197 1.854 8.183-5.21 10.732-4.428 18.248l-14.163-0.674c0.647-4.18-2.562-6.034-3.714-10.105-0.931-3.2762-1.861-10.138-0.236-13.071 2.952-5.3456 6.316 4.1928 4.806 7.4824-2.002 4.3753-4.105-2.0964-3.552-4.5434l-7e-3 0.0202z" fill="#fff"/>
<path d="m398.2 386.92c-0.175 2.097 1.496 4.867 0.344 6.741-0.358 0.58-1.955 1.214-2.717 2.002-1.779 1.861-3.775 5.016-6.08 5.359-6.04 0.897-13.003 0.89-19.151 1.375-0.115-4.26-2.238-7.752-5.413-10.414l2.919-1.571 6.498 5.278c0.209-3.161-3.519-4.26-4.712-6.734 3.917-1.463 5.427 2.818 8.757 4.038 0.269-2.622-2.407-4.368-4.712-4.726 3.613-4.475 4.678-1.55 8.102-0.343 5.508 1.934 10.799 0.849 16.158-0.991l7e-3 -0.014z" fill="#fff"/>
<path d="m400.23 124.69-1.126 1.908-88.892 0.08c-1.254 0-2.427 0.641-3.418 0.641-1.961 0-4.159-1.099-6.329-0.614-0.29-0.626 0.599-2.015 1.011-2.015h98.754z" fill="#fff"/>
<path d="m314.62 122.67 1.018-9.444c7.213 1.617 14.54 1.456 21.901 1.355v8.095h-22.919v-6e-3z" fill="#fff"/>
<path d="m407.45 52.714c11.264-2.5953 13.178 13.88 4.435 15.888-11.412 2.6289-12.592-14.014-4.435-15.888zm2.824 5.9859c-2.447-1.7054-4.806 2.8649-2.676 4.3614 3.35 2.3391 4.004-3.4312 2.676-4.3614z" fill="#fff"/>
<path d="m402.25 126.05 15.504 64.032-2.548-1.153-14.809-58.68c-0.405-1.631-0.594-4.347 1.853-4.199z" fill="#fff"/>
<path d="m417.42 199.52c1.402-0.054 3.613-2.231 3.748 1.685l-0.708 1.362c-10.192 3.168-23.471 6.114-31.689-2.71 5.076-1.153 8.069 6.404 14.15 5.056 0.323-1.753-0.331-1.187-1.342-1.658-2.298-1.059-5.527-1.079-6.747-3.735 7.502-0.216 15.079 0.29 22.582 0h6e-3z" fill="#fff"/>
<path d="m384 66.426c13.037 1.9279 14.614-17.816 0.755-16.515-0.081 2.7369-2.569 15.248-0.755 16.515zm3.188-10.394c-2.898 1.4156-2.251 5.2781 1.213 5.2916 1.692-0.4988 1.726-6.2758-1.213-5.2916z" fill="#fff"/>
<path d="m438.65 402.43c0.189 1.605-1.125 2.218-2.373 2.676-5.541 2.036-23.006 3.115-29.612 3.418-2.993 0.135-9.539 0.452-12.161-0.027-2.042-0.371-2.171-2.602-1.341-2.703 15.295 0.681 30.394-1.463 45.494-3.364h-7e-3z" fill="#fff"/>
<path d="m442.7 191.43c0.06 1.8 0.431 4.597-1.82 5.258-3.357 0.984-13.111-0.047-17.419 0.108-5.48 0.195-6.815 2.642-3.343-5.366h22.582zm-15.498 1.348h-6.073v3.377h6.073v-3.377z" fill="#fff"/>
<path d="m406.97 404.44h-13.819c-1.908-1.234 0.876-4.82 2.009-6.081 6.195-6.855 12.134-1.651 11.81 6.081z" fill="#fff"/>
<path d="m369.22 402.42-14.83 0.681c-1.342-3.768 5.649-10.495 8.945-10.003 3.249 0.485 5.359 6.444 5.878 9.329l7e-3 -7e-3z" fill="#fff"/>
<path d="m390.79 402.43v2.69c-11.507 0.492-23.027 2.379-34.574 1.887l-1.82-1.557 36.394-3.02z" fill="#fff"/>
<path d="m445.39 234.57v14.156c-5.689-1.699-8.311-8.642-8.089-14.156h8.089z" fill="#fff"/>
<path d="m397.53 382.2-0.088 3.282c-3.276 1.868-18.066 2.906-18.133-2.264-0.034-2.306 1.571-1.012 1.705-1.012h16.516v-6e-3z" fill="#fff"/>
<path d="m437.31 383.55c1.55 3.559-5.952 4.597-8.541 4.664-2.575 0.068-12.37-0.91-10.671-4.671 6.552 1.557 12.639-0.31 19.212 7e-3z" fill="#fff"/>
<path d="m374.61 233.23c0.815 0.816-2.778 12.276-5.386 12.808l-0.681-12.808h6.073-6e-3z" fill="#fff"/>
<path d="m323.11 85.199c0.405-0.0135 0.614-0.0337 0.89 0.0472 0.769 0.2225 1.193 0.8965 1.389 1.2134 1.355 2.184 1.274 7.4082 0.242 9.8619-0.182 0.4382-0.546 1.2741-1.24 1.4089-0.061 0.0135-0.31 0.0539-0.586-0.0539-0.803-0.3236-0.998-1.6516-1.2-3.1548-0.135-0.9977-0.061-1.0718-0.229-2.3728-0.129-1.0111-0.196-1.5167-0.331-1.9414-0.249-0.8089-0.62-1.4425-1.355-2.7098-0.222-0.3843-0.411-0.6876-0.539-0.8966 0.276-0.3775 0.566-0.6201 0.768-0.7617 0.823-0.5797 1.706-0.6269 2.185-0.6471l6e-3 0.0067z" fill="#fff"/>
<path d="m338.55 74.151c2.507-0.027-1.092 11.116-1.814 12.329-1.267 2.1234-3.323 1.3482-3.114-1.0314 0.155-1.7526 3.323-11.278 4.928-11.298z" fill="#fff"/>
<path d="m382.7 51.218c-4.685 2.6829-5.244 10.448-0.674 13.482l0.674-13.482z" fill="#fff"/>
<path d="m353.54 153.84c12.498-2.171 12.761 15.996 1.214 15.376-9.195-0.492-9.673-13.907-1.214-15.376zm1.349 1.335c-7.901 0.647-7.644 12.551 0.525 12.342 8.791-0.229 7.409-12.996-0.525-12.342z"/>
<path d="m408.32 78.188c-0.91 5.4736-13.596 6.1949-15.497 2.3458-1.099-2.2245 4.078 0.6067 4.678 0.728 4.961 0.9977 6.606-1.6313 10.819-3.0738z"/>
<path d="m442.7 61.336-0.465 2.0223c-2.939 0.2898-3.506 2.5952-4.631 4.6984-0.479 0.8898 0.215 1.7324-1.632 1.3616-0.148-3.7749 2.683-8.1565 6.735-8.0823h-7e-3z"/>
<path d="m410.27 58.7c1.335 0.9302 0.674 6.7005-2.676 4.3614-2.137-1.4898 0.229-6.0668 2.676-4.3614z"/>
<path d="m387.19 56.031c2.946-0.9842 2.912 4.7928 1.213 5.2916-3.464-0.0135-4.118-3.876-1.213-5.2916z"/>
<path d="m427.2 192.78h-6.073v3.377h6.073v-3.377z"/>
<path d="m357.46 56.611-3.95-12.343c7.853-6.0264 11.817-12.74 10.623-22.973-3.754-32.141-69.849-27.098-60.958 9.7204 3.593 14.884 19.974 19.751 33.718 18.841 2.434-0.1618 5.656-1.7459 7.921-1.2066 2.063 0.4921 11.217 9.289 12.646 7.9543v0.0067zm-2.696-3.3772c-0.587 0.5797-8.595-6.0331-10.092-6.451-0.984-0.2764-8.81 1.7324-11.122 1.7728-16.556 0.2966-32.377-10.098-29.04-28.379 4.233-23.135 47.995-24.55 56.448-4.476 4.881 11.594 0.182 21.16-9.444 27.847l3.25 9.6867z"/>
<path d="m304.51 20.176c4.233-23.135 47.995-24.55 56.448-4.476 4.881 11.594 0.182 21.16-9.444 27.847l3.25 9.6867c-0.587 0.5797-8.595-6.0331-10.092-6.451-0.984-0.2764-8.81 1.7324-11.122 1.7728-16.556 0.2966-32.377-10.098-29.04-28.379z" fill="#fff"/>
<path d="m355.42 167.51c8.791-0.229 7.409-12.996-0.525-12.342-7.894 0.647-7.638 12.551 0.525 12.342z" fill="#fff"/>
<path d="m142.9 76.312c-0.021-0.0417-0.031-0.1146-0.031-0.2188 0-0.3541 0.135-0.6458 0.406-0.875 0.271-0.2291 0.573-0.3437 0.906-0.3437 0.542 0 1.032 0.4583 1.469 1.375 0.438 0.9167 0.833 2.2187 1.188 3.9062l0.25 1.25v0.0625s0.052-0.1041 0.156-0.3125c0.104-0.2291 0.219-0.5 0.344-0.8125 0.145-0.3125 0.291-0.625 0.437-0.9375s0.26-0.5625 0.344-0.75l0.687-1.75c0.063-0.3333 0.167-0.5729 0.313-0.7187 0-0.0208 0.01-0.0417 0.031-0.0625 0.042-0.0417 0.083-0.0938 0.125-0.1563l0.188-0.0937c0.062-0.0208 0.145-0.0521 0.25-0.0938 0.125-0.0416 0.25-0.0625 0.375-0.0625 0.458 0 0.833 0.2396 1.125 0.7188l0.062 0.2187 0.031 0.2188c0.167 0.375 0.354 0.7917 0.563 1.25 0.208 0.4375 0.416 0.875 0.625 1.3125 0.208 0.4375 0.416 0.8542 0.625 1.25 0.229 0.3958 0.448 0.75 0.656 1.0625 0.188-0.3333 0.385-0.7083 0.594-1.125 0.208-0.4375 0.406-0.8854 0.594-1.3438 0.187-0.4791 0.343-0.9583 0.468-1.4375 0.146-0.5 0.24-0.9895 0.282-1.4687 0.062-0.375 0.229-0.6563 0.5-0.8438 0.27-0.2083 0.541-0.3125 0.812-0.3125 0.354 0 0.646 0.1355 0.875 0.4063 0.25 0.2708 0.375 0.6146 0.375 1.0312-0.062 0.6875-0.198 1.3542-0.406 2-0.188 0.625-0.417 1.2396-0.688 1.8438-0.25 0.6042-0.531 1.1875-0.843 1.75-0.292 0.5625-0.594 1.125-0.907 1.6875-0.083 0.2083-0.156 0.4479-0.218 0.7187-0.063 0.2709-0.157 0.5313-0.282 0.7813s-0.291 0.4687-0.5 0.6562c-0.187 0.1667-0.448 0.25-0.781 0.25s-0.583-0.1041-0.75-0.3125c-0.167-0.2083-0.292-0.5-0.375-0.875-0.104-0.5208-0.344-1.1145-0.719-1.7812-0.354-0.6875-0.739-1.3958-1.156-2.125l-0.406-0.625-0.688 1.3437c-0.208 0.3959-0.385 0.75-0.531 1.0625-0.125 0.2917-0.24 0.5625-0.344 0.8125-0.083 0.25-0.166 0.5-0.25 0.75-0.062 0.25-0.135 0.5313-0.218 0.8438l-0.157 0.5625c-0.125 0.4792-0.291 0.8437-0.5 1.0937-0.187 0.2709-0.458 0.4063-0.812 0.4063-0.292 0-0.563-0.1146-0.813-0.3438-0.25-0.2291-0.406-0.5625-0.468-1v-0.125c-0.271-1.2916-0.542-2.4166-0.813-3.375-0.271-0.9583-0.531-1.9375-0.781-2.9375-0.125-0.4791-0.292-1.0416-0.5-1.6875-0.209-0.6666-0.448-1.2395-0.719-1.7187z"/>
<path d="m159.78 76.312c-0.021-0.0417-0.031-0.1146-0.031-0.2188 0-0.3541 0.135-0.6458 0.406-0.875 0.271-0.2291 0.573-0.3437 0.906-0.3437 0.542 0 1.032 0.4583 1.469 1.375 0.438 0.9167 0.833 2.2187 1.188 3.9062l0.25 1.25v0.0625s0.052-0.1041 0.156-0.3125c0.104-0.2291 0.219-0.5 0.344-0.8125 0.145-0.3125 0.291-0.625 0.437-0.9375s0.26-0.5625 0.344-0.75l0.687-1.75c0.063-0.3333 0.167-0.5729 0.313-0.7187 0-0.0208 0.01-0.0417 0.031-0.0625 0.042-0.0417 0.083-0.0938 0.125-0.1563l0.188-0.0937c0.062-0.0208 0.145-0.0521 0.25-0.0938 0.125-0.0416 0.25-0.0625 0.375-0.0625 0.458 0 0.833 0.2396 1.125 0.7188l0.062 0.2187 0.031 0.2188c0.167 0.375 0.354 0.7917 0.563 1.25 0.208 0.4375 0.416 0.875 0.625 1.3125 0.208 0.4375 0.416 0.8542 0.625 1.25 0.229 0.3958 0.448 0.75 0.656 1.0625 0.188-0.3333 0.385-0.7083 0.594-1.125 0.208-0.4375 0.406-0.8854 0.594-1.3438 0.187-0.4791 0.343-0.9583 0.468-1.4375 0.146-0.5 0.24-0.9895 0.282-1.4687 0.062-0.375 0.229-0.6563 0.5-0.8438 0.27-0.2083 0.541-0.3125 0.812-0.3125 0.354 0 0.646 0.1355 0.875 0.4063 0.25 0.2708 0.375 0.6146 0.375 1.0312-0.062 0.6875-0.198 1.3542-0.406 2-0.188 0.625-0.417 1.2396-0.688 1.8438-0.25 0.6042-0.531 1.1875-0.843 1.75-0.292 0.5625-0.594 1.125-0.907 1.6875-0.083 0.2083-0.156 0.4479-0.218 0.7187-0.063 0.2709-0.157 0.5313-0.282 0.7813s-0.291 0.4687-0.5 0.6562c-0.187 0.1667-0.448 0.25-0.781 0.25s-0.583-0.1041-0.75-0.3125c-0.167-0.2083-0.292-0.5-0.375-0.875-0.104-0.5208-0.344-1.1145-0.719-1.7812-0.354-0.6875-0.739-1.3958-1.156-2.125l-0.406-0.625-0.688 1.3437c-0.208 0.3959-0.385 0.75-0.531 1.0625-0.125 0.2917-0.24 0.5625-0.344 0.8125-0.083 0.25-0.166 0.5-0.25 0.75-0.062 0.25-0.135 0.5313-0.218 0.8438l-0.157 0.5625c-0.125 0.4792-0.291 0.8437-0.5 1.0937-0.187 0.2709-0.458 0.4063-0.812 0.4063-0.292 0-0.563-0.1146-0.813-0.3438-0.25-0.2291-0.406-0.5625-0.468-1v-0.125c-0.271-1.2916-0.542-2.4166-0.813-3.375-0.271-0.9583-0.531-1.9375-0.781-2.9375-0.125-0.4791-0.292-1.0416-0.5-1.6875-0.209-0.6666-0.448-1.2395-0.719-1.7187z"/>
<path d="m176.65 76.312c-0.021-0.0417-0.031-0.1146-0.031-0.2188 0-0.3541 0.135-0.6458 0.406-0.875 0.271-0.2291 0.573-0.3437 0.906-0.3437 0.542 0 1.032 0.4583 1.469 1.375 0.438 0.9167 0.833 2.2187 1.188 3.9062l0.25 1.25v0.0625s0.052-0.1041 0.156-0.3125c0.104-0.2291 0.219-0.5 0.344-0.8125 0.145-0.3125 0.291-0.625 0.437-0.9375s0.26-0.5625 0.344-0.75l0.687-1.75c0.063-0.3333 0.167-0.5729 0.313-0.7187 0-0.0208 0.01-0.0417 0.031-0.0625 0.042-0.0417 0.083-0.0938 0.125-0.1563l0.188-0.0937c0.062-0.0208 0.145-0.0521 0.25-0.0938 0.125-0.0416 0.25-0.0625 0.375-0.0625 0.458 0 0.833 0.2396 1.125 0.7188l0.062 0.2187 0.031 0.2188c0.167 0.375 0.354 0.7917 0.563 1.25 0.208 0.4375 0.416 0.875 0.625 1.3125 0.208 0.4375 0.416 0.8542 0.625 1.25 0.229 0.3958 0.448 0.75 0.656 1.0625 0.188-0.3333 0.385-0.7083 0.594-1.125 0.208-0.4375 0.406-0.8854 0.594-1.3438 0.187-0.4791 0.343-0.9583 0.468-1.4375 0.146-0.5 0.24-0.9895 0.282-1.4687 0.062-0.375 0.229-0.6563 0.5-0.8438 0.27-0.2083 0.541-0.3125 0.812-0.3125 0.354 0 0.646 0.1355 0.875 0.4063 0.25 0.2708 0.375 0.6146 0.375 1.0312-0.062 0.6875-0.198 1.3542-0.406 2-0.188 0.625-0.417 1.2396-0.688 1.8438-0.25 0.6042-0.531 1.1875-0.843 1.75-0.292 0.5625-0.594 1.125-0.907 1.6875-0.083 0.2083-0.156 0.4479-0.218 0.7187-0.063 0.2709-0.157 0.5313-0.282 0.7813s-0.291 0.4687-0.5 0.6562c-0.187 0.1667-0.448 0.25-0.781 0.25s-0.583-0.1041-0.75-0.3125c-0.167-0.2083-0.292-0.5-0.375-0.875-0.104-0.5208-0.344-1.1145-0.719-1.7812-0.354-0.6875-0.739-1.3958-1.156-2.125l-0.406-0.625-0.688 1.3437c-0.208 0.3959-0.385 0.75-0.531 1.0625-0.125 0.2917-0.24 0.5625-0.344 0.8125-0.083 0.25-0.166 0.5-0.25 0.75-0.062 0.25-0.135 0.5313-0.218 0.8438l-0.157 0.5625c-0.125 0.4792-0.291 0.8437-0.5 1.0937-0.187 0.2709-0.458 0.4063-0.812 0.4063-0.292 0-0.563-0.1146-0.813-0.3438-0.25-0.2291-0.406-0.5625-0.468-1v-0.125c-0.271-1.2916-0.542-2.4166-0.813-3.375-0.271-0.9583-0.531-1.9375-0.781-2.9375-0.125-0.4791-0.292-1.0416-0.5-1.6875-0.209-0.6666-0.448-1.2395-0.719-1.7187z"/>
<path d="m314.78 22.812c-0.104 0.0208-0.198 0.0313-0.281 0.0313l0.187 2.8124c0.042 0.6459 0.073 1.3021 0.094 1.9688 0.021 0.6458 0.031 1.3021 0.031 1.9688 0 0.3541-0.125 0.6458-0.375 0.875-0.25 0.2291-0.531 0.3437-0.843 0.3437-0.292 0-0.584-0.1042-0.875-0.3125-0.271-0.1875-0.428-0.5-0.469-0.9375 0-1.9375-0.094-3.8958-0.281-5.875-0.167-2-0.25-3.9583-0.25-5.875 0-0.375-0.011-0.7917-0.032-1.25 0-0.4792 0.021-0.9375 0.063-1.375 0.041-0.4583 0.114-0.875 0.219-1.25 0.125-0.3958 0.312-0.6979 0.562-0.9063 0.729-0.3124 1.469-0.5624 2.219-0.75 0.771-0.1874 1.552-0.3645 2.344-0.5312 0.791-0.1667 1.593-0.3229 2.406-0.4688 0.812-0.1666 1.635-0.375 2.469-0.625 0.458 0 0.812 0.1146 1.062 0.3438 0.271 0.2292 0.406 0.5208 0.406 0.875 0 0.5-0.25 0.9271-0.75 1.2812-0.708 0.2084-1.416 0.3855-2.125 0.5313-0.687 0.125-1.375 0.25-2.062 0.375-0.688 0.125-1.375 0.2604-2.063 0.4063-0.666 0.125-1.343 0.302-2.031 0.5312-0.042 0.4167-0.073 0.8438-0.094 1.2812-0.021 0.4167-0.031 0.8438-0.031 1.2813v0.5313l0.094 2.1562c1.333-0.3333 2.75-0.5521 4.25-0.6562 1.521-0.125 3.041-0.1876 4.562-0.1876 0.354 0.125 0.636 0.3126 0.844 0.5626 0.208 0.2291 0.313 0.4791 0.313 0.75 0 0.3124-0.115 0.5729-0.344 0.7812s-0.521 0.3646-0.875 0.4688c-1.438 0-2.844 0.0416-4.219 0.125-1.375 0.0833-2.75 0.3229-4.125 0.7187z"/>
<path d="m325.78 29.094c0-0.5626 0.01-1.1459 0.031-1.75 0.042-0.6042 0.115-1.1771 0.219-1.7188l0.219-2.3125 0.281-1.6875c0.063-0.2708 0.094-0.5208 0.094-0.75 0-0.25-0.052-0.5104-0.156-0.7812-0.084-0.2709-0.323-0.4063-0.719-0.4063-0.167 0-0.334-0.0417-0.5-0.125-0.146-0.1042-0.281-0.2187-0.406-0.3437-0.125-0.1459-0.23-0.2917-0.313-0.4376-0.062-0.1458-0.094-0.2812-0.094-0.4062 0-0.25 0.125-0.5208 0.375-0.8125s0.594-0.4375 1.032-0.4375c1.083 0.1042 1.875 0.4062 2.375 0.9062s0.75 1.1146 0.75 1.8438c0.625-0.4375 1.354-0.7604 2.187-0.9688 0.833-0.2291 1.823-0.3854 2.969-0.4687 0.458 0 0.812 0.125 1.062 0.375 0.25 0.2292 0.375 0.5208 0.375 0.875 0 0.3125-0.104 0.5937-0.312 0.8437-0.209 0.2292-0.49 0.375-0.844 0.4376-0.958 0.0624-1.771 0.1666-2.437 0.3124-0.667 0.1459-1.23 0.3855-1.688 0.7188-0.458 0.3125-0.812 0.7396-1.062 1.2812-0.25 0.5417-0.438 1.2396-0.563 2.0938l-0.094 0.4688v1.2812c-0.021 0.3125-0.041 0.6354-0.062 0.9688 0 0.3124-0.021 0.6354-0.063 0.9687l-0.093 0.5625-0.188 0.5c-0.333 0.3958-0.719 0.5938-1.156 0.5938-0.75 0-1.156-0.4376-1.219-1.3126v-0.3124z"/>
<path d="m338.15 21.75c-0.042 0.0208-0.062 0.0417-0.062 0.0625h0.062c0.146 0 0.292 0.0417 0.438 0.125 0.145 0.0625 0.27 0.1458 0.375 0.25 0.104 0.0833 0.187 0.1667 0.25 0.25 0.083 0.0625 0.135 0.0937 0.156 0.0937 0.312 0.1459 0.656 0.2188 1.031 0.2188 0.604 0 1.115-0.0833 1.531-0.25 0.417-0.1875 0.625-0.625 0.625-1.3125-0.125-0.4167-0.271-0.7604-0.437-1.0313-0.146-0.2708-0.396-0.5312-0.75-0.7812l-0.656-0.2812h-0.438c-0.167 0-0.385 0.0416-0.656 0.125-0.271 0.0833-0.542 0.1979-0.813 0.3437-0.083 0.125-0.166 0.3125-0.25 0.5625-0.083 0.2292-0.156 0.4583-0.218 0.6875-0.063 0.2292-0.115 0.4375-0.157 0.625-0.021 0.1875-0.031 0.2917-0.031 0.3125zm0.25 3.0312-0.094-0.3437c0.25 1.1042 0.854 2.0104 1.813 2.7187 0.208 0.1667 0.469 0.3126 0.781 0.4376 0.333 0.125 0.656 0.2395 0.969 0.3437 0.333 0.1042 0.625 0.1875 0.875 0.25 0.25 0.0417 0.406 0.0625 0.469 0.0625 0.208-0.1875 0.468-0.2812 0.781-0.2812 0.375 0.0416 0.666 0.1979 0.875 0.4687 0.208 0.25 0.312 0.5208 0.312 0.8125 0 0.4583-0.218 0.8229-0.656 1.0938-0.417 0.2916-0.865 0.4374-1.344 0.4374-1.021 0-1.989-0.2083-2.906-0.625-0.917-0.3958-1.719-0.9374-2.406-1.625-0.688-0.6874-1.25-1.4791-1.688-2.375-0.416-0.8958-0.646-1.8437-0.687-2.8437 0-0.6875 0.052-1.4271 0.156-2.2187 0.104-0.7917 0.323-1.5209 0.656-2.1876 0.334-0.6874 0.813-1.2604 1.438-1.7187 0.646-0.4583 1.5-0.6875 2.562-0.6875 0.667 0 1.292 0.1458 1.875 0.4375 0.584 0.2708 1.084 0.6458 1.5 1.125 0.438 0.4792 0.782 1.0313 1.032 1.6563 0.25 0.6041 0.375 1.2395 0.375 1.9062 0 0.6042-0.115 1.1354-0.344 1.5938-0.209 0.4583-0.5 0.8437-0.875 1.1562-0.375 0.2917-0.823 0.5208-1.344 0.6875-0.5 0.1458-1.031 0.2187-1.594 0.2187-0.229 0-0.489-0.0208-0.781-0.0624-0.271-0.0417-0.531-0.0834-0.781-0.125-0.25-0.0626-0.469-0.1146-0.656-0.1563-0.167-0.0625-0.271-0.1146-0.313-0.1563z"/>
<path d="m348.15 21.75c-0.042 0.0208-0.062 0.0417-0.062 0.0625h0.062c0.146 0 0.292 0.0417 0.438 0.125 0.145 0.0625 0.27 0.1458 0.375 0.25 0.104 0.0833 0.187 0.1667 0.25 0.25 0.083 0.0625 0.135 0.0937 0.156 0.0937 0.312 0.1459 0.656 0.2188 1.031 0.2188 0.604 0 1.115-0.0833 1.531-0.25 0.417-0.1875 0.625-0.625 0.625-1.3125-0.125-0.4167-0.271-0.7604-0.437-1.0313-0.146-0.2708-0.396-0.5312-0.75-0.7812l-0.656-0.2812h-0.438c-0.167 0-0.385 0.0416-0.656 0.125-0.271 0.0833-0.542 0.1979-0.813 0.3437-0.083 0.125-0.166 0.3125-0.25 0.5625-0.083 0.2292-0.156 0.4583-0.218 0.6875-0.063 0.2292-0.115 0.4375-0.157 0.625-0.021 0.1875-0.031 0.2917-0.031 0.3125zm0.25 3.0312-0.094-0.3437c0.25 1.1042 0.854 2.0104 1.813 2.7187 0.208 0.1667 0.469 0.3126 0.781 0.4376 0.333 0.125 0.656 0.2395 0.969 0.3437 0.333 0.1042 0.625 0.1875 0.875 0.25 0.25 0.0417 0.406 0.0625 0.469 0.0625 0.208-0.1875 0.468-0.2812 0.781-0.2812 0.375 0.0416 0.666 0.1979 0.875 0.4687 0.208 0.25 0.312 0.5208 0.312 0.8125 0 0.4583-0.218 0.8229-0.656 1.0938-0.417 0.2916-0.865 0.4374-1.344 0.4374-1.021 0-1.989-0.2083-2.906-0.625-0.917-0.3958-1.719-0.9374-2.406-1.625-0.688-0.6874-1.25-1.4791-1.688-2.375-0.416-0.8958-0.646-1.8437-0.687-2.8437 0-0.6875 0.052-1.4271 0.156-2.2187 0.104-0.7917 0.323-1.5209 0.656-2.1876 0.334-0.6874 0.813-1.2604 1.438-1.7187 0.646-0.4583 1.5-0.6875 2.562-0.6875 0.667 0 1.292 0.1458 1.875 0.4375 0.584 0.2708 1.084 0.6458 1.5 1.125 0.438 0.4792 0.782 1.0313 1.032 1.6563 0.25 0.6041 0.375 1.2395 0.375 1.9062 0 0.6042-0.115 1.1354-0.344 1.5938-0.209 0.4583-0.5 0.8437-0.875 1.1562-0.375 0.2917-0.823 0.5208-1.344 0.6875-0.5 0.1458-1.031 0.2187-1.594 0.2187-0.229 0-0.489-0.0208-0.781-0.0624-0.271-0.0417-0.531-0.0834-0.781-0.125-0.25-0.0626-0.469-0.1146-0.656-0.1563-0.167-0.0625-0.271-0.1146-0.313-0.1563z"/>
<path d="m284.39 331.06c-0.636-0.189 0.115-1.798-0.108-2.359l6.441 1.284c0.44-0.378-1.169-0.906-1.298-0.953-1.581-0.602-3.345-0.723-4.934-1.304 0.419-1.636 1.041-3.198 1.683-4.752 0.771-1.846 3.576-6.577 3.853-7.949 0.608-2.961-0.419-7.942-0.162-11.322 0.115-1.541 0.561-3.163 1.075-4.617 0.398-0.29 6.347 6.76 6.414 7.436 0.027 0.304-0.135 0.331-0.331 0.473-1.42 1.027-3.272 1.642-3.724 3.677 0.27 0.243 2.345-1.521 2.805-1.805 2.487-1.555 3.765-0.696 1.662-3.839-1.5-2.244-3.406-4.38-5.326-6.266 1.886 0.095 4.029 1.433 5.651 2.508 1.967 1.304 4.427 3.149 5.651 5.13 8.625-2.231 17.351-0.095 25.124 3.785 4.157-1.568 8.023-4.15 12.525-4.664l-3.109 2.15c-1.744 1.69-3.928 2.96-5.394 4.92l4.103 4.732c0.784 0.331-0.379-1.872-0.501-2.075-0.534-0.906-1.338-1.703-2.095-2.427v-0.426c2.109-1.716 4.4-3.92 6.705-5.326 0.406-0.25 2.339-1.413 2.643-1.108 0.223 5.231-2.636 10.267-4.61 14.992 0.892 3.555 1.906 7.077 2.251 10.76-2.616 0.271-5.225 0.697-7.732 1.508-0.082 0.554 0.087 0.446 0.533 0.426 0.987-0.041 6.861-1.406 7.199-1.075v2.792h-6.117c-0.128 0-0.412 0.439-0.318 0.642l6.226 0.216-0.98 2.994c-1.839-0.622-3.738-1.568-5.678-1.71-0.108 0.575 0.121 0.372 0.432 0.521 1.487 0.736 3.373 1.21 4.928 1.845-1.379 4.15-5.712 7.259-9.578 8.97-1.575 0.696-3.265 1.061-4.799 1.852-7e-3 0.574 2.413 0.081 2.798 0.013 2.292-0.419 4.306-1.332 6.415-2.251 3.947 6.171 11.463 8.889 17.175 13.201 5.8 4.38 10.822 10.484 12.958 17.52 3.217 10.626 1.892 20.819-8.064 27.031-3.082 1.926-14.12 3.568-18.102 4.008-0.851 0.094-4.319 0.48-4.812 0.149-0.879-0.602 0.892-2.048 0.655-2.265-1.149-0.155-1.791 0.94-1.716 1.933l-1.271-0.236c-0.338-0.5 0.669-1.839 1.048-2.231-0.751-0.851-1.724 0.649-1.717 1.393-0.94-0.433-7e-3 -2.089 0.466-2.65 1.136-1.352 3.968-2.116 5.685-2.258 1.473-0.121 2.784 0.284 4.055 0.203 0.385-0.027 0.703 0.054 0.953-0.331-0.669-1.386-2.791-0.757-3.961-0.973-1.365-0.257-2.845-4.671-3.062-5.949-1.02-5.948 1.501-11.585 5.739-15.62 0.406-0.386 1.102-0.257 0.331-0.947-3.204 1.758-5.624 5.043-6.55 8.578l-0.405-2.663-0.663-0.129c-0.743 7.044-2.92 14.053-6.617 20.102-1.061 1.738-1.561 2.752-3.542 3.542-2.359 0.947-2.913 0.94-2.291-1.858-1.528-0.338-1.21 1.723-1.393 2.676l-2.379-0.412c-0.547-0.791 0.778-2.974 0.014-3.015-1.136 0.514-1.298 1.413-1.183 2.569-1.487-0.568-1.298-2.582-0.223-3.549 0.601-0.547 1.406-0.554 2.021-0.987 0.96-0.682 1.69-3.886 1.967-5.116 0.987-4.394 1.426-10.085 0.554-14.499-0.068-0.345 0.041-0.71-0.345-0.946l-1.183 13.302c-2.717-1.717-2.886-4.279-3.913-6.922-0.446-1.156-2.156-4.914-3.062-5.522-0.284-0.189-0.5-0.182-0.541 0.115-0.047 0.351 2.339 5.414 2.636 6.583 0.906 3.563 0.994 9.666 0.271 13.269-0.311 1.555-0.67 2.92-2.272 3.522-0.412 0.155-2.352 0.621-2.649 0.527-0.832-0.271-0.534-2.339 0.074-2.88l-0.534-0.324c-1.365 0.534-1.277 2.021-0.966 3.224-1.359-0.297-2.38-0.46-2.062-2.149 0.088-0.46 0.98-1.542 0.23-1.501-1.156 0.061-1.406 1.636-1.393 2.582-0.601-0.264-0.682-1.021-0.648-1.602 0.128-2.257 2.615-2.325 3.082-3.582 1.014-2.745-0.974-8.855-2.001-11.66-4.103-11.18-11.322-16.75-12.025-29.822-0.27-5.022 0.061-10.125 0.426-15.127 1.832 0.567 3.42 1.892 5.306 2.318 0.318 0.074 0.575 0.176 0.494-0.277-5.53-3.393-11.187-7.334-13.952-13.41 0.136-0.142 3.218-0.812 3.772-1.062 0.325-0.142 0.602-0.223 0.521-0.655l-4.718 1.074-0.643-2.784c0.338 0.135 0.805-0.217 0.967-0.217h4.4v-0.426c-0.27 0.102-0.628-0.216-0.75-0.216-0.96 0-3.853 0.196-4.508 0l-7e-3 -0.047zm15.789-6.104c-2.602 0.44-2.386 4.738 0.338 4.779 3.035 0.041 3.062-5.353-0.338-4.779zm21.4 2.859c-2.595 0.413-2.501 4.745 0.21 4.745 3.042 0 2.893-5.238-0.21-4.745zm-6.38 10.329c-0.994 0.047-1.379 1.034-2.474 1.088s-2.325-0.723-2.792-1.731c-1.088-2.386 1.825-1.818 2.183-3.974-0.114-1.048-3.9-1.372-4.711-1.129-1.865 0.554 1.122 3.231 1.136 3.704 0.027 1.136-1.663 2.359-2.799 2.17-0.993-0.162-1.216-1.25-2.136-1.413 0.142 2.096 2.386 3.164 4.157 2.116 0.332-0.196 0.798-0.899 1.102-0.825 1.386 2.643 5.354 3.177 6.34 0l-6e-3 -6e-3z" fill="#fff"/>
<path d="m367.79 391.59c0.399-2.63 0.095-5.34-0.433-7.936 8.693-2.048 13.424-12.241 13.965-20.487 0.406-6.198-1.237-13.424-0.378-19.264 1.676-11.349 14.174-13.268 20-3.799 1.947 3.17 3.867 10.369-0.622 12.221-4.488 1.852-6.583-5.725-10.199-1.609-2.995 3.407-1.203 11.998-1.501 16.527-0.77 11.856-10.72 19.96-20.832 24.34v7e-3z" fill="#fff"/>
<path d="m336.02 402.93c-2.731 0.345-5.921 1.548-6.685 4.482l-1.257 0.027c-0.237-0.223 1.71-3.589 1.967-4.144 1.297-2.798 2.636-5.901 3.183-8.942l0.919 4.765 1.873 3.812z" fill="#999"/>
<path d="m378.04 385.58c-1.147 0.422-2.356 0.664-3.579 0.664-2.757 0-5.182-1.023-7.048-2.681-0.09 0.027-0.186 0.055-0.276 0.076 0.539 2.653 0.85 5.424 0.442 8.112 3.648-1.583 7.269-3.642 10.468-6.171h-7e-3z"/>
<path d="m343.71 305.9s-0.013-6e-3 -0.02-0.013c-0.014-7e-3 -0.041-0.027-0.088-0.034h-0.061c-0.135 7e-3 -0.223 0.034-0.223 0.034-0.135 0.04-0.23 0.067-0.27 0.088-2.082 0.845-4.299 2.643-4.299 2.643-0.872 0.709-0.744 0.655-2.758 2.359-0.683 0.574-1.25 1.047-1.629 1.365v0.426c0.412 0.365 0.879 0.838 1.338 1.426 0.568 0.723 0.967 1.419 1.244 2.001 0.534-1.109 1.142-2.271 1.845-3.461 1.596-2.71 3.312-4.975 4.921-6.827v-7e-3z"/>
<path d="m342.92 331.46c2.818 0.041 5.644-0.027 8.455 0.237 0.974 0.095 5.077 0.608 5.692 0.96 0.101 0.061 0.277 0.277 0.209 0.324-4.664-0.297-9.334-0.851-14.032-0.608-0.683 0.223-0.223 2.535-0.352 3.19 6.064 0.683 12.573 2.305 17.608 5.793-5.826-2.007-11.578-4.475-17.817-4.934l-0.858 3.427c3.927 1.649 8.219 3.697 11.578 6.353 0.244 0.196 1.798 1.318 1.521 1.589l-7.935-4.617-5.462-2.48c-1.325 2.622-3.177 5.001-5.61 6.664l-0.088 0.311c4.231 5.61 10.97 8.226 16.499 12.275 7.436 5.448 13.343 13.086 14.837 22.4 7.192-2.48 11.248-9.706 12.383-16.911 1.163-7.368-0.804-14.229-0.122-21.367 1.494-15.613 21.576-14.863 24.814 0.041 1.027 4.732-0.453 10.734-6.469 9.896-2.927-0.413-5.421-6.043-7.374-0.683-1.244 3.4-0.027 9.767-0.25 13.694-0.615 10.653-8.017 18.723-16.973 23.59-1.865 1.075-3.724 2.15-5.59 3.224-0.453 1.954-1.494 5.273-4.062 8.605-2.278 2.954-4.705 4.562-5.421 5.015-2.123 1.352-5.664 2.089-12.654 3.515 0 0-3.791 0.771-10.929 0.892-0.223 0-1.704 0.014-3.292-0.73-1.636-0.763-1.947-1.656-2.014-1.852-0.115-0.358-0.115-0.682-0.095-0.905-0.588-0.048-1.176-0.095-1.771-0.142-0.149 0.5-0.48 1.331-1.223 2.061-0.913 0.892-1.94 1.149-3.022 1.413-1.392 0.338-2.487 0.297-3.569 0.25-0.135 0-1.534-0.068-3.264-0.534-0.791-0.209-1.514-0.696-1.596-0.75-0.405-0.23-0.736-0.446-0.98-0.622-1.041 0.426-2.46 0.838-4.157 0.885-1 0.027-2.811 0.054-4.772-0.926-0.851-0.425-1.48-0.912-1.886-1.27-0.209 0.094-0.966 0.419-1.628 0.087-0.947-0.479-0.933-1.926-0.933-2.162-0.021-2.272 2.413-3.961 3.231-4.529 0.54-0.379 1.027-0.629 1.358-0.784-4.157-3.508-6.408-7.97-6.022-13.532 0.061-0.852 0.858-3.671 0.777-3.968-0.196-0.71-2.21-3.596-2.737-4.569-3.225-5.922-5.002-10.045-5.34-16.98-0.264-5.407 0.027-11.071 0.764-16.418-3.569-2.663-6.402-5.996-8.619-9.855-4.102 1.48-7.962 3.515-11.68 5.779-0.229-0.236 0.568-0.892 0.757-1.068 2.799-2.568 7.091-4.096 10.531-5.576l-0.892-3.204c-5.036 0.534-10.024 1.514-14.796 3.197l-0.108-0.426c4.657-2.298 9.868-3.271 15.026-3.65l0.216-2.575c-3.366-0.507-6.8-0.771-10.206-0.656-0.96 0.034-2.116 0.331-3.11 0.352-0.324 0-0.527 0.108-0.642-0.338 4.603-1.278 9.497-1.014 14.168-0.217 0.993-4.549 3.373-8.827 5.786-12.775 0.135-4.724-0.899-10.037 0.378-14.64 0.338-1.224 0.825-2.447 2.19-2.745 4.265-0.932 10.349 4.874 13.458 7.368 8.354-1.751 16.756 0.115 24.272 3.866 3.231-1.534 6.55-3.413 10.072-4.231 5.069-1.169 6.563-0.061 5.569 5.137-0.797 4.144-2.764 7.983-4.204 11.91 1.203 3.211 1.879 6.57 2.4 9.956l7e-3 -0.027zm-58.529-0.405c0.655 0.196 3.548 0 4.508 0 0.122 0 0.48 0.318 0.751 0.216v0.426h-4.401c-0.162 0-0.628 0.351-0.966 0.216l0.642 2.785 4.718-1.075c0.081 0.433-0.196 0.514-0.521 0.656-0.554 0.25-3.643 0.913-3.771 1.061 2.771 6.077 8.428 10.024 13.951 13.411 0.081 0.453-0.169 0.351-0.494 0.277-1.885-0.426-3.467-1.751-5.306-2.319-0.365 4.995-0.696 10.099-0.425 15.128 0.702 13.072 7.921 18.649 12.024 29.822 1.028 2.805 3.015 8.915 2.001 11.659-0.466 1.258-2.961 1.325-3.082 3.583-0.034 0.581 0.047 1.338 0.649 1.602-0.014-0.947 0.243-2.521 1.392-2.582 0.744-0.041-0.149 1.047-0.23 1.5-0.324 1.69 0.697 1.852 2.062 2.15-0.311-1.203-0.399-2.69 0.966-3.224l0.534 0.324c-0.608 0.541-0.905 2.616-0.074 2.879 0.297 0.095 2.237-0.371 2.65-0.527 1.602-0.601 1.96-1.967 2.271-3.521 0.716-3.603 0.635-9.707-0.271-13.269-0.297-1.169-2.683-6.232-2.636-6.583 0.041-0.298 0.257-0.311 0.541-0.115 0.906 0.615 2.609 4.373 3.062 5.522 1.027 2.643 1.196 5.211 3.914 6.922l1.183-13.303c0.385 0.237 0.27 0.602 0.344 0.947 0.872 4.413 0.433 10.105-0.554 14.498-0.277 1.23-1.007 4.434-1.967 5.117-0.608 0.433-1.413 0.439-2.021 0.987-1.075 0.973-1.264 2.981 0.223 3.549-0.115-1.163 0.047-2.055 1.183-2.569 0.757 0.041-0.561 2.224-0.014 3.015l2.38 0.412c0.182-0.946-0.135-3.015 1.392-2.677-0.622 2.805-0.074 2.805 2.292 1.859 1.98-0.791 2.48-1.805 3.541-3.542 3.698-6.043 5.874-13.059 6.618-20.102l0.662 0.129 0.406 2.663c0.926-3.535 3.346-6.82 6.549-8.578 0.771 0.69 0.082 0.561-0.331 0.946-4.238 4.036-6.759 9.673-5.738 15.621 0.216 1.278 1.696 5.691 3.062 5.948 1.169 0.217 3.291-0.412 3.961 0.974-0.251 0.385-0.568 0.304-0.954 0.331-1.277 0.088-2.588-0.325-4.055-0.203-1.717 0.142-4.542 0.906-5.685 2.258-0.473 0.561-1.399 2.217-0.466 2.649-0.014-0.743 0.967-2.25 1.717-1.392-0.379 0.399-1.393 1.737-1.048 2.23l1.271 0.237c-0.074-0.994 0.568-2.089 1.717-1.933 0.243 0.216-1.535 1.663-0.656 2.264 0.494 0.338 3.961-0.054 4.813-0.148 3.981-0.433 15.019-2.082 18.101-4.009 9.956-6.211 11.288-16.404 8.064-27.03-2.136-7.036-7.158-13.14-12.958-17.52-5.711-4.313-13.228-7.03-17.175-13.201-2.109 0.919-4.123 1.832-6.415 2.251-0.385 0.074-2.805 0.561-2.798-0.014 1.528-0.791 3.217-1.156 4.799-1.852 3.873-1.71 8.199-4.819 9.578-8.969-1.561-0.629-3.44-1.109-4.927-1.846-0.305-0.148-0.541 0.048-0.433-0.52 1.94 0.142 3.839 1.081 5.678 1.71l0.98-2.994-6.225-0.217c-0.095-0.202 0.189-0.642 0.317-0.642h6.117v-2.791c-0.338-0.332-6.205 1.027-7.198 1.074-0.446 0.021-0.615 0.129-0.534-0.425 2.501-0.812 5.117-1.237 7.732-1.508-0.344-3.677-1.358-7.198-2.25-10.761 1.967-4.724 4.832-9.753 4.609-14.992-0.304-0.304-2.237 0.865-2.642 1.109-2.305 1.413-4.597 3.609-6.706 5.326v0.426c0.757 0.723 1.555 1.521 2.096 2.427 0.121 0.209 1.284 2.413 0.5 2.075l-4.103-4.732c1.467-1.953 3.657-3.224 5.394-4.921l3.109-2.149c-4.502 0.514-8.375 3.096-12.525 4.664-7.766-3.887-16.492-6.023-25.124-3.785-1.224-1.974-3.684-3.819-5.651-5.131-1.622-1.074-3.758-2.419-5.651-2.507 1.927 1.886 3.826 4.021 5.327 6.266 2.102 3.143 0.831 2.284-1.663 3.839-0.46 0.29-2.542 2.055-2.805 1.805 0.453-2.035 2.305-2.65 3.724-3.678 0.196-0.141 0.358-0.162 0.331-0.473-0.067-0.676-6.022-7.732-6.414-7.435-0.514 1.453-0.953 3.076-1.075 4.617-0.257 3.379 0.771 8.361 0.162 11.322-0.284 1.372-3.089 6.103-3.852 7.948-0.643 1.555-1.264 3.116-1.684 4.752 1.589 0.582 3.346 0.703 4.935 1.305 0.128 0.047 1.737 0.574 1.298 0.953l-6.442-1.284c0.223 0.567-0.534 2.169 0.108 2.359l7e-3 0.047zm83.409 60.509c10.119-4.38 20.069-12.484 20.833-24.34 0.29-4.529-1.501-13.12 1.5-16.527 3.616-4.109 5.86 3.4 10.2 1.609 4.339-1.791 2.568-9.051 0.622-12.221-5.827-9.476-18.325-7.557-20.001 3.799-0.858 5.84 0.784 13.059 0.379 19.264-0.541 8.246-5.273 18.439-13.965 20.487 0.527 2.596 0.831 5.306 0.432 7.936v-7e-3zm-61.834 9.01c-0.486-3.731-1.71-7.591-3.251-11.018-0.554-1.243-1.27-2.751-2.115-3.785-1.149 5.854 1.108 10.903 5.36 14.803h6e-3zm30.059 2.359-1.872-3.812-0.92-4.765c-0.554 3.041-1.885 6.144-3.183 8.942-0.257 0.554-2.21 3.921-1.967 4.144l1.257-0.027c0.764-2.934 3.954-4.137 6.685-4.482zm-20.393 1.717c2.224 0.068 2.15-3.258 2.778-4.84l-2.237-2.67c-0.27 2.495 0.122 5.05-0.534 7.51h-7e-3zm-9.875-1.71c-2.014 0.115-4.691 2.285-3.833 4.468l0.825 0.034c-0.155-1.075 0.21-1.893 0.764-2.778l2.244-1.724z"/>
<path d="m305.96 400.57c-4.258-3.9-6.516-8.956-5.36-14.803 0.845 1.035 1.555 2.542 2.116 3.786 1.541 3.426 2.758 7.293 3.251 11.017h-7e-3z" fill="#fff"/>
<path d="m315.63 404.65c0.663-2.454 0.271-5.009 0.534-7.51l2.238 2.67c-0.629 1.582-0.555 4.908-2.779 4.84h7e-3z" fill="#fff"/>
<path d="m305.75 402.94-2.244 1.724c-0.554 0.885-0.919 1.703-0.764 2.778l-0.825-0.034c-0.858-2.19 1.819-4.353 3.833-4.468z" fill="#fff"/>
<path d="m321.51 327.78c3.123-0.501 3.278 4.778 0.209 4.778-2.73 0-2.825-4.359-0.209-4.778z"/>
<path d="m300.17 324.9c3.433-0.575 3.406 4.867 0.344 4.819-2.751-0.04-2.967-4.38-0.344-4.819z"/>
<path d="m315.2 338.14c-0.98 3.176-4.955 2.642-6.34 0-0.305-0.075-0.771 0.628-1.102 0.824-1.771 1.055-4.009-0.02-4.157-2.115 0.912 0.162 1.135 1.243 2.136 1.412 1.135 0.19 2.825-1.034 2.798-2.169-0.013-0.474-3.001-3.15-1.136-3.705 0.812-0.243 4.597 0.082 4.712 1.129-0.359 2.156-3.272 1.589-2.184 3.975 0.46 1.007 1.67 1.777 2.792 1.73s1.474-1.034 2.474-1.088l7e-3 7e-3z"/>
<path d="m319.46 388.39c-1.487 0-2.616-0.304-3.36-0.548-1.838-0.608-3.298-1.588-4.015-2.115 0.933 0.953 2.441 4.278 2.86 5.353 1.027 2.643 1.196 5.212 3.913 6.922l0.852-9.619c-0.081 0-0.169 0.014-0.25 0.014v-7e-3z" fill="#999"/>
<path d="m290.93 298.99c-0.048 0.109-0.095 0.212-0.143 0.321 0.695 1.478 1.233 2.725 1.622 3.645 0.49 1.172 0.742 1.772 1.008 2.61 0.45 1.403 0.675 2.596 0.79 3.427 0.089-0.089 0.225-0.218 0.396-0.368 0.374-0.327 0.688-0.525 1.172-0.825 0.129-0.081 0.919-0.572 1.178-0.756 0.041-0.027 0.041-0.027 0.116-0.082 0.211-0.149 0.259-0.17 0.293-0.231 0.034-0.055 0.048-0.13 0.034-0.239-0.068-0.681-6.071-7.795-6.466-7.495v-7e-3z"/>
</svg>
